<svg version="1.1" xmlns="http://www.w3.org/2000/svg" viewBox="0 0 1648.1489898989898 792.7272727272727" width="1648.1489898989898" height="792.7272727272727">
  <!-- svg-source:excalidraw -->
  
  <defs>
    <style>
      @font-face {
        font-family: "Virgil";
        src: url("https://excalidraw.com/Virgil.woff2");
      }
      @font-face {
        font-family: "Cascadia";
        src: url("https://excalidraw.com/Cascadia.woff2");
      }
    </style>
  </defs>
  <rect x="0" y="0" width="1648.1489898989898" height="792.7272727272727" fill="#ffffff"></rect><g transform="translate(356.6179430790412 30.23201077463048) rotate(0 287.5 65.00000000000001)"><text x="287.5" y="18" font-family="Virgil, Segoe UI Emoji" font-size="20px" fill="#000000" text-anchor="middle" style="white-space: pre;" direction="ltr">Construir um bot para o Discord:</text><text x="287.5" y="44" font-family="Virgil, Segoe UI Emoji" font-size="20px" fill="#000000" text-anchor="middle" style="white-space: pre;" direction="ltr">- Executar um comando com a pergunta e as respostas</text><text x="287.5" y="70" font-family="Virgil, Segoe UI Emoji" font-size="20px" fill="#000000" text-anchor="middle" style="white-space: pre;" direction="ltr">- Colocar as reações para as pessoas poderem responder</text><text x="287.5" y="96" font-family="Virgil, Segoe UI Emoji" font-size="20px" fill="#000000" text-anchor="middle" style="white-space: pre;" direction="ltr">- Criar discussão na publicação do canal Quiz</text><text x="287.5" y="122" font-family="Virgil, Segoe UI Emoji" font-size="20px" fill="#000000" text-anchor="middle" style="white-space: pre;" direction="ltr">- + Comando para publicar a resposta</text></g><g stroke-linecap="round" transform="translate(1101.1633976244957 242.55019259281232) rotate(0 90 53.49999999999997)"><path d="M0 0 C0 0, 0 0, 0 0 M0 0 C0 0, 0 0, 0 0 M-0.26 6.4 C1.59 4.27, 3.45 2.13, 4.99 0.36 M-0.26 6.4 C1.08 4.86, 2.41 3.32, 4.99 0.36 M0.13 12.04 C3.85 7.77, 7.56 3.5, 10.63 -0.03 M0.13 12.04 C2.79 8.99, 5.44 5.93, 10.63 -0.03 M-0.13 18.44 C3.74 13.99, 7.61 9.54, 15.62 0.33 M-0.13 18.44 C4.3 13.35, 8.72 8.26, 15.62 0.33 M0.27 24.08 C8.1 15.06, 15.94 6.05, 21.26 -0.07 M0.27 24.08 C4.87 18.79, 9.47 13.5, 21.26 -0.07 M0 30.48 C10.43 18.48, 20.86 6.49, 26.25 0.29 M0 30.48 C9.9 19.1, 19.79 7.71, 26.25 0.29 M-0.26 36.88 C7.83 27.58, 15.91 18.28, 31.89 -0.1 M-0.26 36.88 C7.41 28.06, 15.08 19.23, 31.89 -0.1 M0.14 42.52 C11.09 29.92, 22.04 17.32, 36.88 0.26 M0.14 42.52 C7.68 33.84, 15.23 25.16, 36.88 0.26 M-0.12 48.92 C12.05 34.91, 24.22 20.91, 42.52 -0.14 M-0.12 48.92 C14.4 32.21, 28.93 15.5, 42.52 -0.14 M0.27 54.56 C14.6 38.08, 28.92 21.6, 47.51 0.22 M0.27 54.56 C15.05 37.56, 29.83 20.56, 47.51 0.22 M0.01 60.96 C18.02 40.24, 36.03 19.52, 53.15 -0.17 M0.01 60.96 C18.05 40.21, 36.09 19.46, 53.15 -0.17 M-0.25 67.36 C13.42 51.63, 27.09 35.91, 58.14 0.19 M-0.25 67.36 C19.06 45.14, 38.37 22.93, 58.14 0.19 M0.14 73 C15.46 55.38, 30.78 37.75, 63.78 -0.21 M0.14 73 C14.99 55.92, 29.85 38.83, 63.78 -0.21 M-0.12 79.4 C25.88 49.49, 51.88 19.58, 68.77 0.15 M-0.12 79.4 C25.68 49.72, 51.48 20.04, 68.77 0.15 M0.28 85.04 C28.85 52.17, 57.43 19.29, 74.41 -0.24 M0.28 85.04 C15.49 67.54, 30.7 50.05, 74.41 -0.24 M0.01 91.44 C22.68 65.37, 45.34 39.3, 79.4 0.12 M0.01 91.44 C19.4 69.14, 38.78 46.84, 79.4 0.12 M-0.25 97.84 C28.18 65.13, 56.61 32.43, 85.04 -0.28 M-0.25 97.84 C18.68 76.06, 37.61 54.28, 85.04 -0.28 M0.15 103.48 C33.98 64.56, 67.81 25.64, 90.03 0.08 M0.15 103.48 C20.29 80.31, 40.43 57.14, 90.03 0.08 M1.2 108.37 C21.05 85.53, 40.9 62.7, 95.67 -0.31 M1.2 108.37 C23.43 82.8, 45.65 57.23, 95.67 -0.31 M6.84 107.97 C38.16 71.95, 69.48 35.92, 100.66 0.05 M6.84 107.97 C33.38 77.44, 59.93 46.9, 100.66 0.05 M11.83 108.33 C40.86 74.93, 69.9 41.53, 106.3 -0.34 M11.83 108.33 C47.82 66.93, 83.82 25.52, 106.3 -0.34 M17.47 107.94 C46.27 74.81, 75.07 41.68, 111.29 0.02 M17.47 107.94 C43.15 78.39, 68.84 48.85, 111.29 0.02 M22.46 108.3 C48.92 77.86, 75.37 47.43, 116.27 0.38 M22.46 108.3 C58.05 67.35, 93.65 26.4, 116.27 0.38 M28.1 107.9 C57.26 74.37, 86.41 40.83, 121.92 -0.02 M28.1 107.9 C59.44 71.85, 90.78 35.81, 121.92 -0.02 M33.09 108.26 C66.57 69.75, 100.06 31.23, 126.91 0.34 M33.09 108.26 C64.53 72.09, 95.97 35.93, 126.91 0.34 M38.73 107.87 C59.91 83.51, 81.08 59.15, 132.55 -0.05 M38.73 107.87 C65.52 77.05, 92.32 46.23, 132.55 -0.05 M43.72 108.23 C73.77 73.66, 103.82 39.09, 137.54 0.31 M43.72 108.23 C75.35 71.84, 106.99 35.45, 137.54 0.31 M49.36 107.84 C86.7 64.89, 124.03 21.94, 143.18 -0.09 M49.36 107.84 C71.37 82.52, 93.38 57.2, 143.18 -0.09 M54.35 108.2 C84.95 72.99, 115.55 37.79, 148.17 0.27 M54.35 108.2 C78.64 80.25, 102.94 52.3, 148.17 0.27 M59.34 108.56 C81.94 82.55, 104.54 56.55, 153.81 -0.12 M59.34 108.56 C94.45 68.16, 129.56 27.77, 153.81 -0.12 M64.98 108.16 C92.57 76.42, 120.17 44.67, 158.8 0.24 M64.98 108.16 C98.58 69.5, 132.19 30.84, 158.8 0.24 M69.97 108.52 C91.41 83.85, 112.86 59.18, 164.44 -0.16 M69.97 108.52 C105.09 68.12, 140.21 27.72, 164.44 -0.16 M75.61 108.13 C104.63 74.74, 133.65 41.35, 169.43 0.2 M75.61 108.13 C101.6 78.22, 127.6 48.32, 169.43 0.2 M80.6 108.49 C109.34 75.42, 138.08 42.36, 175.07 -0.19 M80.6 108.49 C117.83 65.65, 155.07 22.81, 175.07 -0.19 M86.24 108.09 C107.13 84.06, 128.02 60.03, 180.06 0.17 M86.24 108.09 C108.95 81.97, 131.66 55.84, 180.06 0.17 M91.23 108.45 C115.99 79.96, 140.75 51.48, 179.79 6.57 M91.23 108.45 C116.26 79.66, 141.28 50.87, 179.79 6.57 M96.87 108.06 C117.74 84.05, 138.61 60.04, 180.19 12.21 M96.87 108.06 C118.87 82.75, 140.88 57.43, 180.19 12.21 M101.86 108.42 C119.61 88, 137.35 67.58, 179.93 18.61 M101.86 108.42 C130.36 75.62, 158.87 42.83, 179.93 18.61 M107.5 108.02 C134.81 76.61, 162.11 45.2, 180.32 24.25 M107.5 108.02 C132.14 79.67, 156.78 51.33, 180.32 24.25 M112.49 108.38 C131.9 86.04, 151.32 63.71, 180.06 30.65 M112.49 108.38 C129.67 88.62, 146.85 68.86, 180.06 30.65 M118.13 107.99 C139.33 83.6, 160.53 59.21, 179.8 37.05 M118.13 107.99 C133.21 90.63, 148.3 73.28, 179.8 37.05 M123.12 108.35 C138.25 90.94, 153.39 73.52, 180.19 42.69 M123.12 108.35 C137.2 92.15, 151.28 75.95, 180.19 42.69 M128.76 107.95 C142.59 92.04, 156.42 76.13, 179.93 49.09 M128.76 107.95 C146.51 87.54, 164.25 67.13, 179.93 49.09 M133.75 108.31 C144.55 95.89, 155.35 83.46, 180.33 54.73 M133.75 108.31 C148.83 90.96, 163.91 73.61, 180.33 54.73 M139.39 107.92 C148.88 97, 158.37 86.08, 180.07 61.13 M139.39 107.92 C155.39 89.52, 171.38 71.11, 180.07 61.13 M144.38 108.28 C155.87 95.06, 167.36 81.84, 179.8 67.53 M144.38 108.28 C156.81 93.97, 169.25 79.67, 179.8 67.53 M150.02 107.88 C158.4 98.25, 166.78 88.61, 180.2 73.17 M150.02 107.88 C159.58 96.88, 169.14 85.88, 180.2 73.17 M155.01 108.24 C163.61 98.35, 172.21 88.46, 179.94 79.57 M155.01 108.24 C161.95 100.26, 168.89 92.28, 179.94 79.57 M160.65 107.85 C164.85 103.02, 169.05 98.19, 180.33 85.21 M160.65 107.85 C165.27 102.54, 169.89 97.22, 180.33 85.21 M165.64 108.21 C170.86 102.21, 176.08 96.2, 180.07 91.61 M165.64 108.21 C170.55 102.56, 175.46 96.91, 180.07 91.61 M171.28 107.82 C173.12 105.69, 174.97 103.57, 179.81 98 M171.28 107.82 C173.4 105.38, 175.51 102.95, 179.81 98 M176.27 108.18 C177.48 106.78, 178.69 105.39, 180.2 103.65 M176.27 108.18 C177.27 107.02, 178.27 105.87, 180.2 103.65" stroke="#40c057" stroke-width="0.5" fill="none"></path><path d="M0 0 C63.37 0, 126.73 0, 180 0 M0 0 C61.48 0, 122.95 0, 180 0 M180 0 C180 33.58, 180 67.16, 180 107 M180 0 C180 41.14, 180 82.28, 180 107 M180 107 C121.2 107, 62.4 107, 0 107 M180 107 C129.11 107, 78.22 107, 0 107 M0 107 C0 75.39, 0 43.79, 0 0 M0 107 C0 72.69, 0 38.37, 0 0" stroke="#000000" stroke-width="1" fill="none"></path></g><g transform="translate(1106.1633976244957 248.05019259281232) rotate(0 85 47.99999999999997)"><text x="85" y="17" font-family="Virgil, Segoe UI Emoji" font-size="20px" fill="#000000" text-anchor="middle" style="white-space: pre;" direction="ltr">TODO: Criar </text><text x="85" y="41" font-family="Virgil, Segoe UI Emoji" font-size="20px" fill="#000000" text-anchor="middle" style="white-space: pre;" direction="ltr">canal onde os </text><text x="85" y="65" font-family="Virgil, Segoe UI Emoji" font-size="20px" fill="#000000" text-anchor="middle" style="white-space: pre;" direction="ltr">comandos são </text><text x="85" y="89" font-family="Virgil, Segoe UI Emoji" font-size="20px" fill="#000000" text-anchor="middle" style="white-space: pre;" direction="ltr">digitados</text></g><g stroke-linecap="round" transform="translate(49.60784206894027 632.4693845120048) rotate(0 90 53.5)"><path d="M0 0 C0 0, 0 0, 0 0 M0 0 C0 0, 0 0, 0 0 M0.24 6.19 C0.64 5.15, 2.28 2.93, 5.41 0.17 M-0.07 6.43 C1.21 4.61, 2.56 3.66, 4.9 0.2 M1.58 12.8 C4.01 7.68, 5.93 4.53, 9.63 -1.31 M0.12 12.25 C3.33 8.36, 6.61 4.37, 10.91 0.36 M-1.16 19.45 C4.65 12.21, 10.74 7.05, 14.73 0.73 M0.41 18.83 C5.57 12.5, 11.93 4.82, 16.12 0.9 M-0.1 24.11 C3.61 17.74, 9.05 12.25, 20.68 -0.23 M-0.4 24.93 C3.61 19.73, 8.02 13.41, 21.68 0.46 M-0.45 31.84 C6.97 21.29, 14.24 12.5, 28.12 0.17 M0.58 31.02 C8.42 21.14, 18.13 10.22, 26.55 -0.07 M-1.88 35.07 C8.95 29.52, 15.02 17.75, 32.68 -0.68 M0.7 37.36 C9.59 24.9, 19.93 14.46, 31.67 -0.76 M-0.96 43 C9.1 33.54, 17.9 23.48, 38.56 0.26 M-0.73 41.89 C11.25 28.43, 23.26 13.95, 36.19 1.09 M-2.01 50.66 C8.01 37.89, 18.39 28.83, 42.89 0.45 M-1.04 48.02 C16.53 29.92, 33.9 9.87, 42.22 0.44 M-1.44 52.59 C17.2 33.42, 34.77 11.91, 45.67 0.75 M-0.1 54.97 C9.95 43.49, 21.01 30.46, 46.97 0.13 M-1.77 59.65 C20.8 35.39, 42.04 12.85, 54.09 -1.77 M-0.2 61.28 C11.72 46.05, 24.54 31.73, 53.46 0.37 M0 68.71 C13.4 54.3, 25.97 39.08, 56.42 -0.91 M0.06 67.19 C17.27 45.77, 35.94 25.3, 58.69 0.41 M1.57 71.72 C19.73 48.8, 43.86 26.01, 62.4 -0.54 M-0.85 72.39 C23.91 46.24, 45.58 20.38, 64.36 0 M0.52 80.88 C14.03 61.87, 31.13 43.28, 69.08 -1.61 M0.15 79.89 C15.64 62.97, 30 46.25, 69 0.99 M2 86.24 C18.49 64.44, 32.12 46.38, 73.24 -1.4 M0.75 84.27 C19.09 61.74, 38.49 40.09, 74.73 -1.07 M0.64 92.58 C24.58 63.94, 49.96 34.12, 81.22 -0.54 M-0.55 91.31 C29.09 58.68, 57.42 26.46, 79.38 0.56 M0.21 97.03 C33.79 58.83, 64.53 21.26, 85.34 -2.2 M-0.42 98.24 C16.89 77.6, 33.12 57.68, 85.23 -0.56 M-1.15 102.2 C28.44 69.61, 59.46 36.02, 89.73 0.82 M0.76 103.59 C24.17 75.06, 50.84 47.59, 89.16 -0.53 M-0.54 107.82 C35.95 66.86, 73.66 23.64, 94.75 -1.09 M1.7 107.51 C20.5 84.8, 39.83 62.74, 95.35 0.46 M5.5 108.3 C34.85 73.94, 67.31 37, 98.82 -1.37 M6.24 108.01 C38.94 69.37, 71.81 33.31, 101.5 -0.28 M10.93 106.74 C43.55 74.49, 71.02 37.97, 106.83 -0.54 M11.63 107.66 C37.91 78.95, 64.47 49.42, 105.45 -0.42 M19.09 107.67 C51.24 70.62, 84.39 30.17, 112.01 -1.22 M17.75 107.03 C38.56 83.95, 60.01 60.33, 111.42 0.99 M20.69 106.49 C54.49 76.2, 82.75 39.35, 115.61 1.42 M23.32 108.8 C54.62 70.53, 88.17 31.22, 116.04 -0.2 M26.1 106.31 C49.21 85.67, 68.22 61.49, 120.11 0.83 M28.65 107.3 C47.98 86.29, 67.53 64.65, 121.79 0.59 M31.32 106.88 C51.56 83.89, 73.22 59.82, 126.37 0.19 M33.77 108.12 C67.73 68.23, 102.18 29.92, 126.48 0.5 M38.27 109.38 C69.89 74.01, 101.34 38.25, 133.29 -1.97 M39.12 107.6 C66.07 76.53, 92.95 45.23, 133.3 -0.5 M44.72 109.4 C77.82 71.08, 109.94 31.43, 135.76 1.11 M43.78 108.48 C63.81 85.48, 82.44 63.45, 136.98 0 M48.63 109.71 C73.53 79.73, 98.91 50.93, 144.98 1.31 M50.14 107.36 C78.83 73.03, 108.34 38.78, 142.5 0.36 M54.08 109.24 C87.52 72.59, 118.69 34.55, 146.38 0.47 M54.05 108.38 C85.08 74.03, 114.77 37.8, 147.26 0.51 M58.91 108.6 C80.24 82.73, 100.93 60.58, 151.96 -0.71 M58.9 109.42 C78.18 85.92, 96.99 65.52, 153.78 -0.55 M63.93 107.27 C88.96 82.56, 110.74 54.56, 158.17 2.23 M65.07 107.99 C97.43 72.09, 129.39 34.48, 157.88 0.88 M70.07 108.74 C101.94 68.12, 135.39 33.56, 166.31 -1.7 M69.41 109.01 C98.94 73.26, 129.46 38.74, 165.37 0.72 M74.09 110.07 C99.27 79.99, 120.09 54.61, 168.36 2.04 M75.22 109.12 C98.97 82.2, 120.03 54.85, 170.25 0.66 M82.46 106.81 C115.36 70.19, 150.26 28, 175.41 -1.68 M80.53 108.28 C109.71 74.31, 138.35 41, 175.36 -0.23 M87.72 109.87 C106.59 87.65, 128.15 61.69, 179.49 -0.74 M86.69 107.27 C120.05 67.35, 155.98 26.29, 180.61 0.02 M90.37 110.39 C111.81 83.75, 134 58.39, 180.07 7.84 M90.64 109.29 C115.38 80.96, 141.65 52.03, 179.75 6.65 M95.25 108.61 C121.24 81.18, 144.22 54.39, 180.93 12.98 M97.53 107.55 C118.34 83.87, 139.88 59.61, 179.57 11.86 M101.4 106.76 C121.47 88.06, 141.74 62.06, 179.61 16.72 M100.96 108.76 C117.74 88.83, 135.7 69.3, 179.63 18.77 M106.45 109.92 C128.46 84.72, 150.79 61.11, 180.34 25.85 M107.64 108.76 C134.71 78.18, 162.1 47.13, 179.56 23.61 M112.49 106.9 C135.06 85.45, 155.71 62.83, 179.96 28.75 M111.56 108.05 C135.97 81.24, 159.14 54.06, 179.2 31.41 M118.42 107.11 C138.55 83.43, 159.51 59.79, 179.57 37.03 M118.73 107.34 C141.07 81.82, 164.04 55.61, 180.7 36.18 M121.86 109.45 C139.11 89.13, 153.75 71.33, 181.76 42.66 M123.33 109.18 C145.86 83.73, 166.24 57.12, 179.91 42.8 M127.53 107.17 C142.42 94.53, 152.29 81.87, 179.71 47.1 M128.4 107.41 C142.09 93, 155.39 77.73, 179.92 48.85 M133.07 108.76 C144.62 95.9, 157.8 84.12, 180.96 54.89 M134.03 108.83 C147.18 92.75, 160.95 76.71, 181.05 54.83 M137.49 106.8 C148.5 94.46, 158.26 84.16, 181.22 62.59 M140.06 108.7 C148.51 98.34, 156.32 87.37, 181.05 61.84 M142.98 106.87 C152.02 97.22, 161.82 90.29, 180.17 68.33 M144.25 108.34 C155.67 95.73, 166.8 82.88, 179.12 67.79 M151.32 108.37 C160.53 96.14, 170.69 82.3, 178.53 72.98 M150.98 108.65 C162.12 94.37, 174.68 80.93, 179.39 73.28 M153.75 109.48 C161.12 101.71, 171.14 92.45, 179.29 81.28 M155.43 107.71 C163.22 99.01, 172.6 88.17, 180.4 79.37 M159.35 107.93 C170.22 97.86, 175.99 88.24, 179.37 83.42 M160.26 108.31 C167.58 100.72, 171.69 94.23, 181.1 85.93 M164.88 110 C167.88 106.15, 172.31 101.01, 179.54 91.99 M165.84 107.57 C170.48 101.08, 175.38 95.07, 179.07 91.17 M171.24 107.45 C173.42 105.92, 177.06 101.02, 180.02 98.98 M171.01 108.21 C173.65 105.78, 175.23 103.4, 180.28 97.99 M176.54 108.58 C177.65 106.47, 178.04 106.36, 180.79 103.64 M176.37 107.9 C177.31 107, 177.91 106.2, 180.08 103.66" stroke="#fab005" stroke-width="0.5" fill="none"></path><path d="M-1.33 0.41 C38.7 -0.94, 78.8 -1.44, 181.86 0.38 M0.83 0.16 C51.06 -0.87, 102.81 -1.73, 179.7 0.37 M181.29 -0.59 C180.58 26.85, 179.8 57.9, 178.34 108.75 M180.23 0.7 C179.91 34.32, 179.77 68.58, 180.38 106.83 M181.12 106.24 C125.45 105.64, 69.3 107.26, 0.18 105.87 M180.35 107.73 C121.09 105.88, 60.16 106.5, -0.84 106.42 M-0.21 107.48 C-0.92 82.98, -2.19 62.4, -1.29 0.88 M0.67 106.36 C-0.2 79.45, -0.21 51.64, -0.12 0.26" stroke="#000000" stroke-width="1" fill="none"></path></g><g transform="translate(54.60784206894027 637.4693845120048) rotate(0 85 48)"><text x="85" y="17" font-family="Virgil, Segoe UI Emoji" font-size="20px" fill="#000000" text-anchor="middle" style="white-space: pre;" direction="ltr">Bot interpretar </text><text x="85" y="41" font-family="Virgil, Segoe UI Emoji" font-size="20px" fill="#000000" text-anchor="middle" style="white-space: pre;" direction="ltr">o comando de </text><text x="85" y="65" font-family="Virgil, Segoe UI Emoji" font-size="20px" fill="#000000" text-anchor="middle" style="white-space: pre;" direction="ltr">criação de </text><text x="85" y="89" font-family="Virgil, Segoe UI Emoji" font-size="20px" fill="#000000" text-anchor="middle" style="white-space: pre;" direction="ltr">pergunta</text></g><g stroke-linecap="round" transform="translate(313.05555555555543 647.2380952380959) rotate(0 90 45)"><path d="M0 0 C0 0, 0 0, 0 0 M0 0 C0 0, 0 0, 0 0 M-0.43 6.41 C0.78 4.33, 1.74 3.9, 4.25 0.13 M-0.44 6.74 C0.59 4.93, 1.55 4.32, 4.97 0.19 M-0.71 11.33 C3.65 9.09, 5.32 4.8, 10.13 1.56 M0.21 11.9 C4.06 8.37, 7.62 3.61, 9.9 0.48 M-0.02 18.66 C4.3 10.08, 10.48 6.88, 17.48 -1.22 M-0.69 18.92 C4.21 12.02, 9.76 6.23, 16.55 1.2 M-1.25 26.02 C6.13 16.38, 8.88 11.78, 20.19 1.77 M-0.12 25.08 C5.89 18.76, 9.53 11.46, 22.08 0.39 M1.87 28.8 C9.87 21.23, 19.1 8.57, 26.59 -1.19 M-0.06 30.27 C7.75 21.04, 15.38 11.9, 26.53 0.25 M1.22 38.65 C6.77 31.08, 15.17 20.27, 31.32 -1.01 M0.2 36.05 C10.87 22.92, 23.89 8.22, 32.45 -0.26 M-0.72 44.46 C7.82 32.51, 17.5 21.54, 37.15 1.53 M-0.45 43.36 C9.68 31.59, 21.29 19.53, 36.83 0.34 M-1.75 49.47 C12.93 35.55, 24.36 22.06, 43.26 0.63 M0.54 48.41 C11.07 36.82, 22.26 24.45, 41.9 -0.49 M-0.18 52.91 C12.04 42.96, 24.52 25.92, 47.19 -1.66 M-0.62 54.9 C9.72 42.92, 21.03 31.05, 47.21 0.38 M-1.04 62.86 C15.11 44.15, 31.77 27.06, 53.17 1.43 M0.15 61.69 C19.92 39.4, 40.04 16.72, 52.39 -0.81 M-0.25 65.87 C19.43 47.56, 37.28 28.16, 58.04 -1.71 M-1.18 67.02 C20.02 43.88, 40.01 20.37, 57.28 0.95 M0.43 72.12 C21.25 47.69, 42.87 23.29, 63.55 -0.23 M0.75 72.35 C23.82 46, 47.5 18.97, 64.68 -1.07 M-1.37 80.5 C19.2 56.39, 37.13 34.81, 70.33 0.12 M0.1 80.22 C27.15 49.48, 52.04 17.68, 68.48 0.27 M-0.96 84.26 C19.19 65.36, 34.31 46.65, 74.19 -2.23 M-0.08 84.49 C19.69 63.47, 38.85 41.47, 74.4 -0.48 M0 91.13 C19.32 69.68, 40.12 49.13, 80.03 0.28 M0.95 91.2 C23.74 64.47, 46.9 37.61, 80.13 0.22 M4.41 89.17 C24.36 65.98, 43.42 44.97, 86.2 1.19 M6.98 91.07 C23.49 70.96, 39.53 50.52, 86.03 0.44 M9.9 89.24 C28.65 68.51, 48.37 50.16, 90.39 0.89 M11.17 90.71 C36.16 62.67, 60.89 34.18, 89.34 0.35 M18.24 90.74 C44 59.25, 71.11 25.9, 94 -0.5 M17.9 91.02 C48.4 54.61, 80.16 19.1, 94.87 -0.2 M20.68 91.85 C43.75 66.15, 69.22 39.11, 100.01 1.76 M22.35 90.08 C48.99 59.65, 77.18 27.17, 101.12 -0.15 M25.61 91.06 C60.22 54.15, 89.46 17.53, 105.34 -2.13 M26.53 91.44 C51.88 62.85, 74.01 35.64, 107.07 0.37 M31.8 92.37 C49.46 71.42, 68.58 49.37, 110.76 0.39 M32.76 89.94 C60.4 56.05, 88.93 22.86, 110.29 -0.42 M37.48 90.37 C61.14 64.31, 87.12 33.34, 116.59 1.88 M37.14 91.55 C55.69 72.31, 71.97 52.72, 116.99 0.35 M44.09 91.9 C64.1 65.78, 82.13 46.18, 123.86 -0.03 M43.54 89.62 C59.61 71.01, 74.79 53.21, 121.52 0.03 M50.14 92.87 C75.04 61.87, 98.81 31.82, 127.44 -1.44 M47.86 90.5 C76.57 57.03, 105.4 25.06, 127.78 0.29 M55.63 91.21 C80.68 59.23, 109.2 24.87, 131.82 1.37 M54.65 91.06 C80.59 58.92, 109.54 28.1, 133.32 -0.62 M59.86 91.68 C86.04 59.81, 111.25 32.05, 136.9 0.88 M59.34 90.31 C88.7 56.7, 117.37 24.4, 137.47 -0.28 M65.85 90.78 C85.39 65.49, 111.38 37.97, 142.46 -0.85 M64.9 90.89 C93.73 55.98, 123.85 22.87, 144.05 -0.55 M70.22 89.61 C91.68 63.84, 117.47 31.91, 149.96 0.74 M70.05 90.69 C85.49 73.48, 100.17 54.61, 147.58 0.01 M75.5 90.75 C93.56 70.89, 111.66 49.86, 154.94 1.56 M75.95 90.38 C99.7 60.86, 124.29 32.19, 153.92 -0.29 M80.1 91.16 C108.53 60.55, 134.13 28.52, 156.91 1.75 M80.34 90.99 C110.81 53.64, 142.05 19.42, 158.5 -0.76 M86.62 90.98 C107.69 64.23, 132.92 38.76, 163.7 -1.46 M86.29 89.46 C104.88 66.66, 125.34 42.16, 164.98 -0.71 M91.73 90.51 C105.35 72.22, 123.3 53.26, 169.36 -0.83 M90.36 90.21 C111.58 68.47, 130.15 44.42, 169.44 0.1 M94.56 90.99 C112.77 71.25, 129.87 51.51, 174.52 1.71 M97.28 90.71 C126.25 56.88, 156.21 22.37, 175.1 -1.01 M102.6 91.55 C125.16 62.09, 149.13 34.51, 180.25 -0.02 M102.14 91.03 C120.22 69.15, 139.87 46.49, 180.47 -0.03 M108.01 90 C129.57 64, 151.14 40.41, 178.56 7.18 M107.1 89.38 C127.57 67.24, 148.18 43.96, 180.13 6.05 M113.55 91.82 C139.69 59.63, 166.07 30.41, 181.29 10.91 M111.54 89.75 C126.74 72.3, 140.99 57.01, 179.99 12.95 M116.94 90.92 C133.54 71.62, 148.64 53.1, 181.53 20.43 M116.77 89.38 C134.64 70.8, 152.04 49.7, 178.95 19.05 M120.73 90.59 C137.92 73.04, 153.45 55.51, 178.55 26.22 M122.24 90.37 C144.05 66.54, 163.59 43.42, 180.24 23.64 M128.66 88.33 C144.66 70.94, 163.63 49.65, 179.73 28.87 M128.18 91.24 C146.72 71.29, 162.35 50.76, 179.58 30.48 M131.58 88.78 C145.12 80.61, 153.54 67.52, 180.22 36.7 M133.81 90.51 C143.7 78.02, 156.18 65.06, 179.18 36.13 M139.12 89.28 C148.75 81.09, 155.3 70.05, 180.17 42.87 M137.39 90.95 C148.18 79.1, 158.42 66.15, 179.27 41.74 M144.87 89.02 C150.18 80.35, 158.64 73.01, 181.8 50.56 M143.64 91.45 C157.56 75.45, 172.62 58.71, 179.54 48.9 M147.55 90.21 C160.51 77.76, 171.76 65.07, 181.18 54.5 M149.26 90.85 C159.8 79.42, 168.22 68.17, 181.15 53.91 M154.68 91.63 C163.47 81.61, 171.2 72.79, 178.1 61.95 M154.94 90.16 C161.24 81.39, 169.94 73.01, 180.95 61.37 M160.53 89.55 C165.32 81.4, 174.54 76.83, 179.75 66.26 M159.55 90.23 C165.97 83, 171.48 76.05, 179.5 68.47 M166.41 90.6 C167.93 85.88, 173.06 78.12, 181.93 71.98 M164.82 91.23 C169.92 86.32, 172.57 81.73, 180.53 72.83 M170.48 92.2 C172.86 87.67, 175.37 85.51, 178.59 79.94 M169.66 90.42 C172.16 88.1, 175.24 85.82, 180.31 80.11 M176.09 90.18 C176.49 90.13, 177.61 88.67, 180 85.28 M175.89 90.64 C176.65 88.76, 177.81 87.46, 180.31 85.22" stroke="#fab005" stroke-width="0.5" fill="none"></path><path d="M-1.77 -1.39 C39.25 0.01, 80.61 0.61, 179.46 -0.15 M0.68 -0.14 C66.28 0.49, 132.62 2.12, 179.57 0.16 M179.54 1.51 C181.2 29.51, 182.21 57.97, 180.74 88.08 M180.39 -0.27 C179.14 26.94, 178.74 53.19, 180.75 89.56 M181 91.17 C114.48 90.65, 46.12 90.61, -1.78 90.81 M180.06 90.25 C142.89 90.67, 104.36 91.17, -0.56 89.69 M-0.73 91.88 C-1.16 66.99, -1.14 43.04, 1.8 1.4 M0.78 89.53 C-0.36 61.82, -0.75 33.28, -0.68 0.45" stroke="#000000" stroke-width="1" fill="none"></path></g><g transform="translate(318.05555555555543 655.7380952380959) rotate(0 85 36)"><text x="85" y="17" font-family="Virgil, Segoe UI Emoji" font-size="20px" fill="#000000" text-anchor="middle" style="white-space: pre;" direction="ltr">Validar se tem </text><text x="85" y="41" font-family="Virgil, Segoe UI Emoji" font-size="20px" fill="#000000" text-anchor="middle" style="white-space: pre;" direction="ltr">os dados </text><text x="85" y="65" font-family="Virgil, Segoe UI Emoji" font-size="20px" fill="#000000" text-anchor="middle" style="white-space: pre;" direction="ltr">necessários</text></g><g transform="translate(966.1489898989898 36.5840548340548) rotate(0 336 39.000000000000014)"><text x="336" y="18" font-family="Virgil, Segoe UI Emoji" font-size="20px" fill="#000000" text-anchor="middle" style="white-space: pre;" direction="ltr">Ideias futuras:</text><text x="336" y="44" font-family="Virgil, Segoe UI Emoji" font-size="20px" fill="#000000" text-anchor="middle" style="white-space: pre;" direction="ltr">- Criação de canal temporário (tópico) na execução do comando</text><text x="336" y="70" font-family="Virgil, Segoe UI Emoji" font-size="20px" fill="#000000" text-anchor="middle" style="white-space: pre;" direction="ltr">permitindo que o usuário diga qual a resposta correta da pergunta</text></g><g stroke-linecap="round" transform="translate(316.16666666666663 476.00000000000074) rotate(0 90 53.5)"><path d="M0 0 C0 0, 0 0, 0 0 M0 0 C0 0, 0 0, 0 0 M-0.31 6.23 C1.08 4.1, 2.65 2.75, 4.85 0.8 M-0.19 6.59 C1.92 4.03, 3.76 1.81, 5.29 0.74 M0.43 10.91 C1.23 8.16, 6.25 5.42, 9.03 -0.18 M0.36 11.56 C3.15 9.2, 6.32 5.21, 10.11 -0.34 M-2.03 17.25 C6.5 9.91, 10.92 5.38, 14.51 -1.52 M-0.26 17.88 C5.67 12.03, 11.3 5.19, 15.1 -0.14 M-0.85 25.87 C7.14 15.91, 11.27 9.78, 21.06 -1.73 M0.58 23.8 C6.86 16.53, 13.3 9.07, 22.21 0.68 M0.68 31.29 C8.64 22.95, 15.33 12.27, 24.62 0.53 M0.41 29.97 C6.69 21.5, 13.99 14.38, 26.15 -0.21 M0.33 36.63 C13.02 22.65, 24.81 10.04, 31.5 0.07 M-0.42 36.62 C6.76 27.65, 15.15 19.4, 32.2 -0.27 M-1.77 42.51 C12.44 29.41, 24.67 17.24, 35.84 2.1 M0.7 43.3 C13.74 26.98, 28.28 11.13, 36.23 -0.57 M-2.01 48.15 C8.65 34.72, 22.99 23.71, 44 -0.97 M0.18 48.63 C10.36 36.27, 20.8 25.85, 43.43 -0.32 M-1.58 53 C14 38.87, 24.54 24.5, 48.4 -0.61 M0.23 54.68 C12.73 40.57, 25.45 24.41, 48.49 0.79 M-0.58 61.63 C10.87 46.29, 23.64 34.18, 51.93 0.68 M-0.96 60.47 C19.22 39.1, 37.79 16.96, 52.26 0.09 M1.69 69.3 C12.73 53.18, 22.4 39.27, 57.8 -1.74 M-1.18 68.32 C12.85 54.07, 24.11 39.65, 57.96 -0.46 M-0.11 71.17 C14.16 57.91, 27.29 39.55, 61.95 -1.77 M-0.71 73.66 C20.57 48.46, 40.87 25.64, 63.87 -0.77 M-0.21 79.37 C23.49 52.54, 44.94 23.27, 66.87 -1.71 M-0.9 78.84 C20.47 54.94, 42 31.87, 69.5 1 M1.99 84.61 C23.24 62.69, 42.93 35.52, 74.05 0.6 M-0.1 85.42 C19.13 64.06, 38.17 41.79, 74.3 -0.03 M-0.2 93.11 C23.94 62.06, 48.47 38.13, 77.76 0.7 M0.55 91.76 C26.48 61.18, 53.13 30.06, 79.81 0.14 M-1.05 96.18 C28.98 63.49, 59.76 30.8, 85.52 0.37 M-0.93 97.34 C20.93 72.77, 44.57 46.67, 84.41 -0.11 M-1.24 103.36 C22.12 75.58, 45.5 51.13, 91.92 0.46 M0.18 102.52 C31.19 67.17, 60.43 33.92, 89.43 -0.39 M2.6 110.06 C21.26 85.24, 40.64 63.74, 94.99 -2.18 M2.07 108.91 C36.22 68.38, 71.64 26.02, 95.92 -0.81 M5.59 107.12 C41.62 69.2, 77.98 29.24, 102.11 -1.83 M6.4 107.64 C30.92 81.77, 52.69 55.72, 100.76 -0.32 M12.66 106.82 C43.96 66.99, 78.49 29.46, 106.37 0.92 M12.65 108 C31.84 85.34, 54.46 60, 105.4 -1.26 M17.35 107.61 C39.91 85.31, 60.72 59.05, 112.42 0.14 M17.27 108.9 C36.83 85.97, 57.02 64.16, 112.03 0.3 M23.79 107.58 C57.25 67.71, 92.76 28.74, 116.24 2.09 M21.97 109 C57.69 65.21, 95.33 23.37, 115.6 0.82 M27.08 109.28 C62.49 68.61, 94.53 33.66, 122.24 -1.61 M28.38 108.22 C54.99 76.18, 82.37 46.21, 121.32 -0.92 M31.13 108.61 C64.61 76.14, 91.52 40.32, 128.46 -0.84 M32.24 107.37 C54.64 82.68, 78.45 56.91, 126.08 0.09 M37.07 107.7 C62.17 79.16, 89.29 50.25, 134.27 -1.41 M38.1 107.65 C75.43 64.18, 112.71 23.24, 132.54 -0.72 M45.12 107.82 C73.22 74.61, 103.67 38.3, 138.24 -0.1 M43.5 108.26 C68.37 79.22, 94.8 51.73, 137.27 0.16 M50.95 106.18 C77.36 77.01, 104.02 43.34, 142.52 0.12 M49.66 107.92 C77.46 76.25, 105.7 44.62, 143.47 -0.19 M55.54 108.86 C75.31 86.8, 95.78 61.95, 146.74 -0.96 M53.65 108.46 C89.44 66.61, 123.91 26.58, 149.12 0.5 M60.97 108.41 C92.25 74.58, 122.78 38.46, 152.33 0.04 M58.46 109.13 C81.58 83.08, 102.99 58.72, 153.71 -0.77 M63.47 109.02 C97.82 72.44, 128.56 36.32, 160.46 -1.01 M64.42 108.4 C100.95 66.03, 137.6 24.31, 158.4 -0.72 M70.68 107.56 C90.82 83.32, 117.23 56.6, 164.34 1.1 M70.72 107.8 C99.22 76.05, 129.2 42.55, 164.71 -0.22 M77.3 107.3 C98.66 81.97, 124.59 52.39, 171.19 1.83 M75.39 108.19 C107.8 71.17, 138.05 33.42, 168.73 -0.7 M78.98 106.72 C109.52 75.1, 138.45 42.8, 174.51 -0.27 M81.53 109.37 C108.83 76.53, 135.84 43.87, 175.78 -0.65 M84.72 108.4 C108.57 81.93, 133.44 53.36, 180.03 1.35 M85.97 107.6 C105.61 87.14, 123.88 66.5, 180.59 0.01 M90.73 107.92 C123.48 72.22, 156.53 34.3, 180.18 4.85 M91.49 109.18 C111.21 86.03, 133.32 60.52, 180.14 6.25 M96.77 106.69 C120.59 78.61, 148.2 49.99, 178.93 11.08 M97.44 108.02 C122.85 77.83, 148.64 46.31, 180.8 11.62 M100.09 108.88 C122.57 85.86, 141.34 63.85, 181.26 18.77 M102.02 109.22 C120.81 89.05, 136.77 67.08, 180.09 18.18 M107.76 106.23 C126.58 85.74, 143.25 62.44, 182.11 24.12 M106.9 108.55 C137.46 74.94, 165.73 43.17, 179.99 24.81 M110.56 107 C136.6 76.75, 165.16 47.95, 180.23 29.7 M113.42 108.13 C128.15 90.33, 143.77 71.81, 179.06 30.72 M119.34 108.77 C132.28 88.87, 150.12 72.29, 177.96 38.06 M117.31 107.89 C138.35 84.57, 157.21 63.27, 180.53 37.78 M122.93 107.38 C145.78 85.08, 163.16 59.9, 178.3 40.83 M122.81 109.22 C140.48 89.71, 157.43 68.75, 179.72 42.35 M128.47 109.74 C141.51 91.75, 157.23 74.16, 178.15 47.91 M129.45 108.45 C144.69 89.1, 161.23 71.6, 179.55 49.1 M135.31 106.79 C153.19 88.27, 171.36 65.65, 179.98 53.02 M134.16 108.46 C148.02 91.18, 163.07 73.99, 180.57 55.26 M139.4 106.27 C152.53 95.59, 163.47 81.03, 181.7 62.65 M139.98 108.24 C147.95 97.71, 156.58 87.87, 179.1 60.27 M143.13 109.7 C158.21 92.62, 172.25 76.27, 180.43 65.61 M144.27 108.46 C153.99 98.8, 162.53 87.22, 179.33 68.01 M151.72 109.17 C158.01 98, 162.93 92.42, 181.6 74.19 M149.37 106.98 C160.43 95.22, 171.31 83.18, 180.71 72.68 M155.12 108.28 C165.57 97.11, 173.28 87.61, 180.13 81.32 M154.8 108.49 C163.44 98.29, 171.15 88.81, 179.5 78.58 M160.32 106.94 C164.3 102.53, 167.56 97.32, 180.15 86.12 M159.95 108.01 C167.51 100.03, 173.49 94.1, 180.74 84.4 M165.32 106.35 C169.14 103.12, 173.97 98.87, 180.86 90.84 M166.26 108.49 C168.85 103.61, 172.65 99.1, 180.48 90.85 M171.37 109.09 C175.39 103.32, 178.46 100.02, 180.12 98.31 M171.68 108.16 C174.89 104.34, 177.15 100.18, 179.78 98.58 M176.52 107.96 C178.07 106.63, 179.44 105.01, 180.26 103.1 M176.18 108.43 C177.72 106.38, 179.58 104.8, 180.19 103.64" stroke="#fab005" stroke-width="0.5" fill="none"></path><path d="M-0.82 -0.61 C54.79 0.13, 112.02 2.33, 179.91 1.03 M0.35 -0.71 C42.45 -1.92, 83.3 -1.99, 180.71 0.49 M181.1 -1.75 C178.32 31.56, 179.93 62.3, 178.87 107.5 M180.4 0.55 C179.1 26.08, 179.93 51.1, 180.29 107.71 M178.88 108.92 C119.15 108.82, 62.27 107.81, -1.18 106.79 M180.15 106.27 C118.67 109.14, 56.25 107.91, -0.38 107.77 M0.82 107.4 C-0.52 68.54, 1.65 29.41, -0.93 0.25 M-0.61 106.14 C0.19 67.17, -1.62 28.77, 0.24 -0.99" stroke="#000000" stroke-width="1" fill="none"></path></g><g transform="translate(321.16666666666663 481.00000000000074) rotate(0 85 48)"><text x="85" y="17" font-family="Virgil, Segoe UI Emoji" font-size="20px" fill="#000000" text-anchor="middle" style="white-space: pre;" direction="ltr">Formatar a </text><text x="85" y="41" font-family="Virgil, Segoe UI Emoji" font-size="20px" fill="#000000" text-anchor="middle" style="white-space: pre;" direction="ltr">pergunta em um </text><text x="85" y="65" font-family="Virgil, Segoe UI Emoji" font-size="20px" fill="#000000" text-anchor="middle" style="white-space: pre;" direction="ltr">template </text><text x="85" y="89" font-family="Virgil, Segoe UI Emoji" font-size="20px" fill="#000000" text-anchor="middle" style="white-space: pre;" direction="ltr">pré-definido</text></g><g stroke-linecap="round" transform="translate(314.16666666666663 330.0000000000003) rotate(0 90 45)"><path d="M0 0 C0 0, 0 0, 0 0 M0 0 C0 0, 0 0, 0 0 M0 6.06 C1.35 4.86, 2.52 2.09, 4.28 0.95 M-0.19 6.2 C1.35 4.22, 3.37 1.91, 4.71 -0.04 M0.43 12.64 C2.68 9.62, 6.07 3.69, 11.31 -1.31 M-0.25 11.32 C2.54 9.08, 5.43 7.21, 10.78 -0.28 M-2 19.91 C3.88 13.63, 10.92 8.81, 14.41 2.05 M-0.63 19.16 C4.27 13.27, 7.32 8.87, 15.71 0.73 M-1.62 22.84 C6.72 15.69, 15.36 4.76, 23.22 -0.22 M-0.11 24.69 C7.55 16.16, 15.28 6.64, 20.26 -0.95 M1.27 28.97 C7.09 22.61, 13.48 16.22, 25.12 2.09 M-0.91 29.71 C9.79 19.62, 20.14 7.34, 26.83 1.25 M-0.13 35.03 C10.89 23.01, 22.07 12.53, 31.41 0.16 M0.03 37.63 C10.7 23.2, 22.48 10.58, 31.7 -0.41 M1.85 44.44 C12.68 29.56, 20.6 19.02, 35.11 -0.94 M0.58 42.97 C8.68 32.05, 18.67 21.4, 37.38 -0.61 M-1.71 48.73 C15.14 32.2, 28.66 16.84, 43.13 -1.22 M-1.02 49.07 C13.99 31.54, 27.86 15.56, 43.43 0.43 M-0.91 53.34 C12.8 38.73, 23.3 24.19, 45.82 -0.61 M0.02 54.21 C17.13 36.31, 33.09 16.41, 46.74 0.46 M-1.35 62.85 C18.36 40.63, 34.27 19.14, 53.17 -1.8 M-0.66 61.17 C16.06 41.43, 34.86 20.89, 52.4 0.55 M-0.66 66.76 C13.47 49.27, 27.4 34.98, 56.37 -1.18 M-0.4 67.3 C17.13 45.9, 37.4 23.52, 57.96 0.62 M0.35 72.9 C14.97 55.96, 31.24 38.75, 63.99 0.32 M0.04 72.24 C24.13 45.06, 47.21 19.31, 64.25 0.78 M-1.35 80.82 C19.88 55.83, 42.17 29.59, 67.57 -1.62 M0.11 79.66 C14.53 62.4, 29.63 46.16, 69.73 0.86 M0.44 83.66 C26.75 52.48, 54.66 21.79, 73.76 -1.65 M-0.37 85.38 C17.4 65.29, 33.4 46.56, 75.25 -0.21 M-0.58 92.49 C28.22 58.52, 55.07 26.64, 77.93 0.45 M-0.28 90.11 C18.46 70.74, 37.06 48.5, 78.4 1.04 M7.57 90.45 C34.27 55.32, 66.41 20.73, 84.31 0.81 M6.25 89.79 C32.61 58.07, 62.18 25.85, 84.31 0.08 M12.93 91.45 C40.82 59.23, 67.18 26.3, 91.61 0.69 M10.4 90.71 C28.59 71.56, 44.67 51.78, 89.98 -0.17 M16.86 90.2 C41.27 62.62, 65.44 38.4, 97.17 -0.49 M16.48 89.77 C38.37 65.22, 58.63 41.49, 95.04 0.03 M23.11 88.62 C46.63 61.97, 69.21 35.02, 102.51 0.08 M21.77 91.26 C47.07 59.71, 74.75 27.86, 100.14 0.77 M25.21 89.69 C50.18 63.47, 72.16 40.46, 105.56 1.61 M26.6 91.02 C58.37 56.26, 88.47 19.67, 105.68 -0.16 M31.44 90.88 C58.92 60.77, 88.11 27.92, 110.19 0.94 M31.97 90.11 C50.15 72.21, 64.19 53.85, 112.19 0.23 M37.71 89.46 C62.6 59.6, 91.07 30.23, 117.73 2.32 M37.13 90.54 C54.44 72.88, 70.36 53.04, 116.45 0.3 M43.06 92.43 C59.53 69.78, 75.18 53.6, 123.88 -1.14 M43.75 91.41 C70.86 59.57, 97.16 26.19, 121.11 -0.56 M47.23 89.62 C76.49 61.44, 103.58 28.65, 127.59 1.88 M48.25 90.41 C71.55 64.6, 96.05 37.12, 126.25 -0.2 M54.83 90.8 C82.05 60.93, 107.73 27.07, 134.53 -1.23 M54.55 91.19 C81.13 58.83, 107.77 26.84, 133.54 0.44 M56.95 90.85 C76.94 71.59, 92.66 53.74, 138.76 2.13 M58.47 90.84 C87.74 59.1, 114.22 28.68, 136.61 0.82 M63.27 90.81 C82.8 68.74, 102.4 49.63, 142.77 -1.1 M64.46 91.3 C87.59 62.63, 113.83 33.43, 143.77 0.16 M67.73 91.12 C99.5 56.3, 130.56 22.76, 147.2 -0.53 M69.97 90.84 C92.31 63.12, 116.47 36.52, 148.41 0.95 M76.61 88.61 C97.24 65.8, 116.98 43.16, 154.9 -1.19 M74.22 91.44 C105.25 58.46, 133.3 24.86, 153.74 0.33 M78.15 89.74 C102.4 65.14, 124.64 38.94, 160.58 1.6 M80.56 90.29 C110.65 57.63, 139.85 24.9, 159.17 -0.4 M86.73 91.64 C99.82 70.09, 116.28 50.45, 162.92 -0.65 M85.23 91.16 C102.91 69.22, 120.25 50.07, 165.05 -0.44 M92.45 91.32 C113.23 67.33, 133.83 40.73, 170.23 -0.47 M89.71 89.91 C113.59 65.1, 137.32 37.28, 169.07 0.04 M97.25 90.68 C114.29 72.14, 129.25 51.66, 176.52 -1.3 M95.53 89.86 C122.56 57.65, 150.62 25.82, 174.97 -0.73 M100.57 89.77 C129.51 60.34, 158.59 27.17, 179.18 -0.4 M100.57 91.27 C124 65.69, 144.93 41.94, 180.94 -0.62 M107.43 91.81 C136.66 57.05, 166.03 25.34, 181.17 7.13 M107.86 90.76 C122.99 71.06, 140.89 51.95, 180.49 6.55 M110.12 92.35 C136.24 59.52, 162.41 33.79, 179.67 11.52 M111.92 90.76 C137.77 60.28, 165.6 30.09, 179.79 12.64 M116.26 88.41 C131.42 76.63, 143.09 61.52, 179.24 19.93 M117.56 90.94 C137.16 68.89, 156.54 45.92, 179.52 19 M122.44 91.59 C137.05 72.7, 152.53 53.25, 180.58 24.17 M122.2 91.64 C135.62 75.74, 149.22 61.09, 180.26 24.55 M126.37 89.18 C143.57 70.17, 158.85 51.76, 178.08 29.93 M128.67 89.33 C140.03 76.04, 151.72 62.71, 180.85 31.31 M132.5 89.35 C145.78 77.2, 156.78 63.39, 179.36 38.58 M133.53 90.01 C143.06 79.47, 154.02 66.81, 180.5 36.51 M139.46 90.91 C149.49 77.78, 162.72 63.4, 182.12 44.56 M137.21 91.44 C147.61 80.35, 156.56 69.67, 180.39 42.3 M145 88.8 C154.43 76.52, 170.38 60.98, 179.09 48.8 M143.65 90.79 C155.54 78, 167.38 62.67, 179.28 49.48 M146.87 91.41 C158.76 77.74, 168.85 65.38, 181.48 56.54 M149.83 90.37 C158.48 80.75, 166.24 71.13, 179.66 55.62 M154.32 90.44 C161.15 82.36, 169.11 70.33, 180.6 62.49 M153.99 89.77 C163.34 79.91, 173.77 68.01, 180.06 60.55 M157.67 90.08 C166.46 82.91, 175.25 72.56, 179.32 68.69 M159.87 91.33 C164.55 85.47, 167.79 81.03, 179.21 68.52 M164.51 92.06 C168.66 85.58, 173.95 79.42, 181.02 73.86 M165.6 89.57 C168.14 86.37, 172.81 81.73, 179.62 73.89 M169.46 92.37 C172.44 87.16, 174.02 83.64, 178.83 79.02 M170 90.69 C174.32 86.12, 177.09 82.22, 179.38 79.02 M176.29 89.89 C177.65 89.36, 178 87.08, 180.64 84.93 M175.56 90.2 C177.15 88.65, 179.54 86.7, 180 85.32" stroke="#fab005" stroke-width="0.5" fill="none"></path><path d="M-1.92 -1.77 C47.38 -1.34, 95.75 2.24, 180.57 0.86 M-0.65 -0.83 C40.59 0.91, 79.16 -0.6, 180.44 0.61 M178.44 0.43 C181.11 28.66, 177.73 56.83, 181.17 88.56 M179.43 0.46 C180.88 30.01, 179.95 61.65, 180.24 90 M178.13 90.07 C141.6 89.31, 104.96 87.19, -1.97 89.89 M180.85 89.87 C131.87 91.11, 85.97 91.11, 0.57 90.97 M0.84 89.18 C0.16 63.63, -0.39 40.59, -0.85 1.24 M0.22 89.99 C-0.22 68.57, -0.49 47.13, 0.17 -0.87" stroke="#000000" stroke-width="1" fill="none"></path></g><g transform="translate(319.16666666666663 338.5000000000005) rotate(0 85 36)"><text x="85" y="17" font-family="Virgil, Segoe UI Emoji" font-size="20px" fill="#000000" text-anchor="middle" style="white-space: pre;" direction="ltr">Publicar a </text><text x="85" y="41" font-family="Virgil, Segoe UI Emoji" font-size="20px" fill="#000000" text-anchor="middle" style="white-space: pre;" direction="ltr">mensagem no </text><text x="85" y="65" font-family="Virgil, Segoe UI Emoji" font-size="20px" fill="#000000" text-anchor="middle" style="white-space: pre;" direction="ltr">canal Quiz</text></g><g stroke-linecap="round" transform="translate(605.1666666666669 321.9999999999998) rotate(0 90.00000000000006 53.50000000000003)"><path d="M0 0 C0 0, 0 0, 0 0 M0 0 C0 0, 0 0, 0 0 M-0.09 5.78 C2.07 4.68, 3.6 1.2, 5.57 -0.12 M-0.38 6.33 C0.9 4.56, 2.79 2.54, 4.71 0.45 M0.04 10.88 C4.28 8.52, 7.19 2.17, 11.32 -1.05 M0.09 11.79 C2.78 9.3, 5.39 6.18, 10.84 0.51 M-1.65 20.27 C3.57 13.4, 11.35 6.89, 17.59 0.74 M0.58 17.65 C6.41 11.25, 11.73 4.75, 14.73 -0.62 M0.79 23.78 C4.39 20.47, 8.93 15.56, 22.68 1.55 M-0.43 23.37 C7.22 15.03, 15.21 7.41, 20.56 -0.78 M0.69 30.86 C7.26 20.06, 16.68 14.16, 26.3 1.34 M0.91 30.38 C7.86 21.01, 15.78 11.75, 26.41 -0.39 M-1.41 36.94 C12.83 24.75, 21.79 8.89, 33.73 1.42 M-0.18 36.38 C11.28 23.64, 23.01 8.73, 32.43 0.42 M-0.87 40.54 C12.67 29.46, 24.88 11.55, 37.6 1.3 M0.54 42.99 C7.87 33.35, 14.87 25.72, 37.18 -0.62 M-0.01 48.65 C9.1 36.62, 17.7 27.07, 42.01 -0.19 M-0.15 49.47 C13.22 34.14, 28.24 18.23, 42.43 -0.47 M-0.7 54.57 C11.39 39.35, 24.39 25.7, 48.2 0.25 M-0.73 54.88 C12.03 39.72, 24.63 26.62, 47.52 0.65 M1.31 59.06 C21.94 36.2, 41.48 11.31, 54.59 -0.5 M-0.63 61.49 C17.02 41.14, 36.31 19.99, 54.13 0.68 M-0.16 68.22 C15.65 50.57, 27.48 32.55, 58.51 1.15 M-0.1 67.05 C21.1 44.89, 40.77 20.39, 58.6 -0.8 M-0.8 74.86 C13.88 56.11, 27.11 44.18, 64.22 0.61 M-0.6 72.36 C22.44 46.94, 45.95 21.33, 64.75 -1.17 M-0.92 79.87 C16.67 61.65, 29.77 43.45, 68.62 -1.73 M0.82 79.08 C13.3 61.77, 29.38 46.28, 68.21 0.68 M2.01 86.08 C29.44 51.14, 54.04 19.9, 73.32 0.57 M-0.37 85.83 C23.83 59.97, 45.77 33.02, 75.18 -0.21 M-0.97 91.43 C30.05 59.99, 58.39 24.86, 78.31 1.18 M0.16 91.68 C26 62.26, 49.36 36.12, 78.81 0.58 M1.11 98.8 C28.67 63.4, 56.53 31.95, 86.04 -1.9 M-0.26 98.28 C26.01 69.06, 52.43 40.71, 85.95 0.23 M0.08 105.4 C22.9 76.92, 48.63 48.78, 91.06 -1.22 M0.32 103.61 C31.49 69.03, 63.57 32.47, 89.52 0.21 M2.84 106.64 C36.39 70.25, 69.06 30.19, 96.17 1.25 M1.34 108.14 C21.7 85.97, 42.58 61.47, 95.27 -0.37 M6.84 106.01 C25.82 83.33, 46.92 59.65, 102.01 -0.73 M5.93 108.97 C37.8 71.01, 70.32 34.13, 100.12 0.75 M13.82 109.25 C36.92 82.05, 59.24 57.31, 107.21 -0.61 M11.3 108.4 C44.13 71.91, 76.38 35.68, 106.98 0.35 M16.44 109.4 C38.08 85.87, 59.81 61.59, 110.01 -1.83 M18.09 107.22 C52.71 64.84, 88.77 22.77, 111.04 -0.78 M23.97 108.47 C51.01 73.52, 83.39 39.29, 115.71 -0.05 M22.73 108.76 C54.71 71.12, 85.45 35.58, 115.94 0.32 M26.39 106.53 C54.14 80.66, 76.08 52.42, 121.59 -1.7 M28.26 108.22 C53.75 78.11, 78.21 50.86, 121.36 0.48 M32.06 106.88 C65.49 69.19, 99.48 29.79, 125.83 1.39 M32.61 108.22 C56.07 83.36, 77.94 56.42, 126.62 0.07 M39.8 109.13 C60.77 82.86, 85.2 58.64, 130.96 1.81 M39.47 108.12 C60.35 83, 82.93 57.8, 132.83 -0.78 M44.56 106.36 C66.79 81.1, 90.23 54.53, 137.5 1.77 M44.54 107.59 C69.61 77.86, 98.29 46.92, 137.19 1.22 M49.49 106.23 C79.69 74.32, 110.51 38.8, 144.04 -1.85 M48.41 107.93 C72.63 81.75, 95.3 56.06, 143.84 -0.01 M55.62 108.12 C78.74 81.85, 100.17 54.15, 148.95 -0.3 M54.81 107.56 C81.78 76.25, 108.26 45.83, 148.13 -0.5 M61.3 108.97 C88.33 77.18, 117.89 41.56, 154.41 0.09 M58.79 108.22 C87.94 74.13, 118.04 39.33, 153.45 -0.8 M63.09 108.69 C99.94 66.51, 136.68 27.09, 160.12 -0.89 M64.34 108.63 C88.41 82.09, 111.24 54.88, 159.56 -0.53 M68.72 107.51 C100.39 75.18, 127.81 43.25, 163.36 -0.29 M69.93 108.2 C106.45 66.75, 142.26 26.27, 165.37 -0.95 M76.5 107.87 C99.2 81.27, 122.55 55.73, 168.65 1.22 M74.71 107.17 C108.61 71.34, 140.23 33.31, 169.28 0.52 M80.98 107.57 C107.47 79.58, 128.61 51.53, 175.85 0.4 M80.82 108.13 C101.53 84.19, 122.81 60.55, 175.97 -0.35 M85.07 108.83 C105.91 82.83, 127 60.4, 181.83 0.6 M86.18 107.37 C118.38 70.48, 149.12 34.75, 180.74 0.92 M89.64 107.47 C126.09 70.68, 158.18 31.06, 178.64 7.65 M90.81 108.4 C121.94 74.89, 151.42 38.82, 180.37 5.69 M97.69 110.01 C128.48 69.97, 162.18 31.47, 182.17 13.16 M97.64 107.29 C130.04 69.57, 163.01 32.73, 180.53 11.82 M99.95 106.81 C131.4 75.2, 159.62 41.5, 181.37 17.98 M102.85 108.22 C125.06 80.92, 148.14 54.17, 179.56 19.44 M106.98 109.18 C126.8 82.82, 148.65 59.09, 178.86 24.02 M106.64 108.82 C125.87 86.48, 142.52 67.13, 179.92 25.1 M110.84 106.52 C137.35 83, 161.67 52.05, 180.67 31.43 M111.58 107.66 C137.11 80.42, 159.66 54.53, 180.47 31.22 M117.19 107.42 C140.41 82.16, 159.35 57.55, 179.62 36.41 M117.4 107.68 C130.19 93.94, 143.08 79.36, 180.66 36.28 M122.93 108.82 C144.33 82.91, 162.39 62.26, 180.26 44.63 M123.3 107.62 C135.6 93.21, 147.86 79.8, 180.1 42.49 M128.31 109.11 C150.19 83.51, 167.13 61.01, 179.81 48.61 M128.78 107.45 C147.86 85.08, 167.34 62.22, 180.14 49.49 M134.55 109.27 C147.92 92.73, 158.17 78.55, 179.55 53.55 M133.95 107.85 C149.91 90.46, 166.4 70.82, 180.08 54.53 M139.98 105.97 C147.84 95.38, 159.22 88.22, 178.52 62.5 M140.31 107.56 C149.6 96.91, 161 83.66, 179.42 61.94 M145.68 108.74 C151.07 97.23, 161.21 87.74, 180.97 66.21 M145.13 108.94 C152.96 99.69, 160.57 90.41, 180.07 67.25 M151.56 109.02 C160.46 95.21, 172.41 79.88, 181.21 72.5 M150.17 107.28 C158.43 97.11, 168.33 86.28, 179.9 72.94 M154.02 109.38 C161.43 100.3, 169.26 92.22, 180.61 79.67 M154.09 108.33 C162.11 100.64, 168.9 94.19, 180.35 80.12 M162.06 108.57 C162.54 103.65, 169.36 96.56, 178.98 86.34 M161.2 107.7 C164.18 103.12, 169.54 98.79, 180.6 84.66 M166.93 106.69 C169.24 104, 173.77 101.93, 180.28 92.59 M165.77 108.31 C169.5 102.89, 175.08 96.94, 179.87 90.72 M170.59 106.81 C174.33 104.73, 177.35 101.23, 179.94 97.89 M171.02 107.8 C173.99 104.13, 178.06 100.16, 179.66 98.55 M176.63 108.56 C177.4 107.03, 178.61 105.98, 180.79 103.2 M176.4 108.12 C177.56 106.44, 179.23 105.25, 180.42 103.67" stroke="#fab005" stroke-width="0.5" fill="none"></path><path d="M-1.54 -0.64 C54.19 1.53, 105.98 2.82, 181.92 1.06 M-0.92 -0.12 C51.35 -0.32, 104.29 -0.36, 180.13 0.48 M181.51 0.12 C179.62 41.2, 180.08 79.36, 179.39 106.89 M180.96 0.96 C179.72 36.76, 180.68 73.62, 179.4 106.61 M180.91 105.18 C121.08 106.77, 62.29 108.8, -1.73 107.65 M179.9 107.61 C120.53 105.84, 61.7 105.87, -0.54 107.44 M0.29 106.65 C-0.85 64.16, 0.99 27.06, 1.14 -0.81 M-0.61 107.03 C-1.51 77.87, -1.72 49.59, -0.41 0.54" stroke="#000000" stroke-width="1" fill="none"></path></g><g transform="translate(610.1666666666669 327) rotate(0 85.00000000000006 48.00000000000003)"><text x="85" y="17" font-family="Virgil, Segoe UI Emoji" font-size="20px" fill="#000000" text-anchor="middle" style="white-space: pre;" direction="ltr">Adiciona as </text><text x="85" y="41" font-family="Virgil, Segoe UI Emoji" font-size="20px" fill="#000000" text-anchor="middle" style="white-space: pre;" direction="ltr">reações para as</text><text x="85" y="65" font-family="Virgil, Segoe UI Emoji" font-size="20px" fill="#000000" text-anchor="middle" style="white-space: pre;" direction="ltr">pessoas poderem</text><text x="85" y="89" font-family="Virgil, Segoe UI Emoji" font-size="20px" fill="#000000" text-anchor="middle" style="white-space: pre;" direction="ltr">responder</text></g><g stroke-linecap="round" transform="translate(605.1666666666669 475.50000000000074) rotate(0 90.00000000000006 53.5)"><path d="M0 0 C0 0, 0 0, 0 0 M0 0 C0 0, 0 0, 0 0 M-0.05 6.98 C0.65 5.79, 2.86 3.2, 5.26 0.11 M-0.28 6.13 C1.06 4.59, 3.1 2.87, 4.74 0.14 M1.05 11.99 C2.59 8.91, 5.2 2.96, 11.6 -0.98 M-0.57 12.23 C3.4 9.12, 5.66 6.35, 11.16 0.03 M0.21 20.03 C5 16.28, 5.18 8.86, 15.95 -0.52 M0 17.54 C4.1 13.58, 7.07 8.1, 16.51 0.26 M-0.93 25.13 C10.58 13.58, 17.96 6.58, 20.6 1.05 M-0.7 23.39 C7.45 14.05, 16.78 5.34, 21.35 -0.54 M1.88 29.97 C6.64 24.71, 12.21 17.19, 24.25 0.43 M0.61 30.87 C5.93 22.26, 13.7 15.3, 25.33 0.8 M-1.9 36.69 C11.75 23.79, 20.79 14.2, 33.35 1.36 M-0.35 36.39 C12.38 23.71, 22.4 9.59, 30.94 -1.03 M-0.47 44.27 C12.14 31.76, 22.91 16.45, 35.92 -0.42 M-0.01 43.41 C9.7 30.66, 20.87 18.06, 35.99 -0.33 M1.26 49.9 C12.91 32.61, 27.08 19.38, 41.76 -0.12 M0.66 48.15 C17.18 30.36, 33.67 10.55, 42.34 -0.99 M1.09 54.85 C14.27 36.79, 29.95 19, 47.99 1.28 M0.28 53.74 C15.21 39.35, 28.75 22.79, 48.33 0.98 M1.18 61.6 C11.57 47.25, 22.95 34.33, 51.23 -1.89 M-0.61 61.67 C20.9 36.56, 42.08 12.09, 53.47 -1.13 M-0.47 67.71 C15.9 51.97, 29.92 32.35, 57.18 1.16 M0.6 68 C14.15 50.07, 27.37 34.89, 58.84 0.7 M-1.16 71.19 C22.17 46.33, 45.13 20.88, 64.8 -1.18 M0.2 73.02 C24.59 45.74, 47.66 18.88, 63.88 0.67 M-0.53 79.89 C22.87 52.14, 44.52 26.02, 67.89 -1.82 M-0.28 78.94 C14.84 61.77, 29.13 44.6, 68.67 0.61 M-1.12 85.36 C24.85 56.56, 47.77 32.09, 75.23 -1.86 M0.12 84.11 C19.18 63.87, 38.23 42.62, 74.81 -0.62 M1.26 92 C19.2 67.13, 39.53 43.47, 80.21 -1.4 M0.08 92.42 C28.39 58.37, 56.49 26.22, 79.64 0.35 M1 98.89 C32.73 61.84, 61.74 23.67, 84.96 1.5 M0.17 97.48 C30.53 64.51, 59.71 30.86, 85.14 -1.19 M-0.42 105.2 C34.66 64.07, 71.39 25.54, 89.93 0 M0.44 104.35 C28.11 71.97, 55.16 39.27, 90.19 -0.59 M-0.16 110.08 C19.79 86.64, 40.01 61.97, 94.1 -0.39 M1.32 107.71 C35.17 69.06, 69.64 29.06, 95.41 -0.39 M5.37 106.46 C40.25 70.59, 70.92 33.51, 100.52 -0.72 M7.78 107.99 C43.89 65.47, 81.39 22.4, 101.45 -0.88 M10.34 107.28 C33.42 81.47, 57.25 57.11, 104.47 0.54 M11.77 107.95 C31.76 87.49, 49.83 63.95, 105.81 -0.7 M18.06 106.56 C38.64 84.31, 59.67 57.43, 111.12 0.64 M17.54 107.96 C41.02 81.05, 62.56 56.73, 111.18 0.64 M22.72 109.01 C52.52 77.78, 76.8 42.92, 114.92 -1.61 M21.99 108.06 C55.11 70.95, 87.76 34.57, 115.55 0.95 M29.47 107.17 C48.03 84.8, 69.25 61.51, 120.58 -0.41 M27.51 107.28 C57.89 72.96, 88.8 37.38, 121.83 -1 M32.08 106.54 C64.92 75.85, 93.73 37.4, 127.94 2.34 M32.28 109.19 C54.66 82.87, 78.19 56.35, 127.44 0.26 M37.04 106.69 C67.63 76.83, 96.19 45.36, 131.43 -1.04 M39.08 107.25 C59.96 83.24, 81.22 60.45, 132.48 -0.95 M45.19 106.43 C67.49 81.43, 90.42 54.27, 137.74 1.11 M43.61 108.31 C74.08 72.82, 107.17 35.97, 138 0.01 M47.88 108.87 C86.37 67.31, 120.12 27.23, 141.9 0.9 M49.29 108.02 C68.83 86.22, 88.29 63.43, 142.86 -0.51 M52.53 106.6 C90.51 64.85, 131.1 22.19, 148.9 0.02 M53.58 108.26 C78.67 78.41, 104.98 49.02, 148.03 1.06 M58.15 107.51 C79.59 83.98, 100.62 62.56, 153.87 -1.14 M60.17 109.35 C79.95 84.71, 101.83 61.24, 153.38 0.87 M64.24 108.23 C86.76 85.54, 106.22 62.98, 159.66 1.66 M64.49 107.71 C88.44 80.11, 112.45 51.91, 158.02 1.15 M71.67 107.45 C93 86.49, 111.66 61.34, 164.96 1.6 M69.38 107.58 C98.16 76.61, 125.63 44.19, 165.1 -0.41 M74.18 107.84 C107.12 73.33, 135.73 41.07, 169.95 1.96 M75.24 107.17 C101.03 77.48, 126.81 48.38, 170.11 0.83 M79.97 109.13 C107.82 75.9, 139.06 42.1, 176.43 1.21 M80.3 108.14 C112.14 70.29, 143.74 34.2, 175.72 -0.14 M87.86 109.27 C116.41 72.76, 146.41 37.22, 181.41 2.17 M85.44 109 C119.12 71.92, 149.84 36.7, 180.08 -0.5 M92.91 109.54 C125.76 67.47, 162.72 27.43, 179.35 7.87 M90.56 108.57 C122.68 72.55, 155.03 34.07, 179.71 6.57 M98.51 107.66 C129.39 72.35, 158.18 37.64, 178.83 12.89 M97.33 107.4 C127.28 73.07, 158.81 36.62, 180.87 11.5 M102.06 106.96 C127.75 80.27, 151.19 51.59, 179.69 18.77 M101.51 109.24 C120.14 86.2, 140.53 62.98, 179.4 18.13 M107.04 109.45 C124.26 91.03, 138.95 70.81, 181.73 25.91 M107.8 108.43 C133.27 77.01, 161.76 45.79, 180.1 23.84 M112.67 109.01 C137.91 81.88, 159.46 51.92, 178.39 30.65 M112.11 109.37 C138.05 79.97, 162.89 51.64, 179.07 31.02 M118.03 108.42 C135.79 85.89, 154.9 65.26, 180.14 35.17 M118.4 107.96 C134.19 90.56, 149.05 73.87, 179.86 37.21 M123.68 108.61 C138.17 91.37, 154.5 73.66, 179.46 40.84 M123 109.03 C143.29 85.46, 163.18 61.26, 181.06 42.84 M127.77 109.65 C148.1 89.15, 164.31 67.46, 179.73 49.64 M129.36 107.74 C145.26 88.88, 163.19 69.37, 179.88 48.89 M135.71 108 C144.88 95.84, 155.93 82.99, 178.64 53.98 M134.46 109.11 C151.62 87.73, 169.56 66.76, 180.34 55.06 M140.23 109.53 C151.18 92.57, 166.25 76.13, 181.91 61.87 M139.54 107.34 C151.38 92.91, 164.2 78.7, 179.57 61.25 M143.06 106.72 C157.22 93.24, 174.06 75.19, 178.67 66.77 M144.45 107.36 C152.21 98.53, 161.2 88.7, 179.93 67.71 M151.05 107.76 C158.54 98.33, 163.49 92.52, 178.43 72.97 M150.45 108.19 C159.86 98.58, 167.72 88.35, 180.66 72.76 M153.75 109.64 C160.66 100.33, 167.34 93, 179.96 80.98 M154.56 108.39 C161.11 101.85, 167.55 93.45, 179.44 80.44 M159.59 107.35 C165.76 100.11, 170.6 95.04, 178.74 85.36 M160.29 107.54 C167.18 100.5, 173.52 93.15, 180.54 84.73 M165.46 106.93 C167.4 106.21, 169.98 101.74, 180.62 91.93 M166.05 107.63 C171.68 101.32, 176.16 94.95, 179.16 90.98 M172.31 107.05 C173.3 105.05, 176.06 103.22, 180.77 99 M171.68 108.26 C173.43 104.85, 176.54 100.94, 179.66 98.05 M176.65 108.75 C177.34 106.08, 179.05 104.22, 179.88 104.21 M176.14 107.93 C177.75 106.79, 178.6 105.21, 180.36 103.8" stroke="#fab005" stroke-width="0.5" fill="none"></path><path d="M-1.11 0.47 C68.75 -0.05, 139.08 0.73, 179.2 -1.91 M0.36 -0.48 C42.61 -0.44, 87.98 -0.63, 179.95 0.63 M181.51 -1.44 C178.73 34.02, 180.51 66.86, 180.54 106.88 M180.84 -0.41 C178.22 27.09, 179.46 52.51, 180.88 107.81 M179.56 107.13 C120.37 108.65, 55.82 106.56, -1.39 105.19 M179.19 106.12 C124.93 106.09, 69.92 106.55, -0.28 106.96 M1.87 108.77 C0.9 75.01, -1.25 42.5, 1.42 -0.92 M-0.76 107.16 C-0.63 80.44, 0.01 52.83, -0.01 0.59" stroke="#000000" stroke-width="1" fill="none"></path></g><g transform="translate(610.1666666666669 504.50000000000074) rotate(0 85.00000000000006 24)"><text x="85" y="17" font-family="Virgil, Segoe UI Emoji" font-size="20px" fill="#000000" text-anchor="middle" style="white-space: pre;" direction="ltr">Criar discussão </text><text x="85" y="41" font-family="Virgil, Segoe UI Emoji" font-size="20px" fill="#000000" text-anchor="middle" style="white-space: pre;" direction="ltr">na pergunta</text></g><g stroke-linecap="round" transform="translate(48.16666666666674 479.00000000000074) rotate(0 90 45)"><path d="M0 0 C0 0, 0 0, 0 0 M0 0 C0 0, 0 0, 0 0 M-0.44 6.58 C1.45 4.9, 2.46 4.69, 5.61 0.63 M-0.4 6.08 C1.5 4.52, 2.94 2.35, 5.35 0.54 M-0.86 11.39 C4.64 7.61, 8.23 3.18, 10.25 -0.71 M-0.66 11.66 C4.35 7.76, 7.15 2.97, 10.87 0.09 M-1.44 19.44 C3.89 10.83, 10.35 7.75, 16.5 -1.52 M-0.53 18.38 C4.37 14.7, 6.49 9.05, 15.01 0.8 M-0.65 23.01 C7.59 18.63, 12.05 10.75, 19.99 1.59 M0.68 24.33 C6.84 16.21, 14.54 6.37, 21.98 -1.04 M-0.49 32.45 C6.86 22.21, 13.04 14.15, 24.36 -0.21 M0.01 30.76 C9.83 19.89, 20.85 8.13, 25.54 -0.18 M-1.76 34.88 C9.18 27.12, 18.03 15.19, 31.09 -1.89 M-0.35 36.36 C6.98 26.91, 15.83 17.07, 31.95 -0.76 M0.8 43.13 C14.23 25.79, 28.21 12.52, 37.2 0.25 M0.21 42.98 C8.69 31.73, 18.36 20.8, 36.2 -0.67 M-0.29 48.9 C15.79 32.07, 30.87 12.37, 43.69 1.33 M0.21 49.46 C9.77 37.44, 17.85 26.27, 42.73 -0.03 M-1.58 56.36 C12.32 37.42, 28.64 21.71, 49.4 0.87 M0.1 53.94 C12.9 40.86, 24.8 24.6, 47.58 0.42 M1.24 59.06 C11.83 45.83, 20.02 35.06, 51.36 -0.41 M0.42 61.38 C19.56 38.93, 38.59 16.59, 53.09 -1.17 M1.02 65.5 C21.42 44.23, 43.47 17.19, 58.67 0.34 M-0.11 67.94 C15.75 50.66, 32.1 31.09, 58.09 -0.14 M0.3 72.3 C13.33 59.89, 27.75 45.37, 64.93 0.92 M0.82 72.74 C21.59 48.73, 42.22 25.06, 64.6 0.16 M0.51 81.32 C23.97 47.93, 51.08 17.96, 70.03 -0.97 M0.61 79.7 C25.9 48.49, 52.33 17.3, 68 0.05 M1.64 85.26 C17.19 62.52, 37.5 45.11, 72.59 1.04 M-0.21 85.84 C26.43 54.75, 53.23 24.18, 73.71 -1.04 M0.82 91.79 C23.25 65.82, 41.63 42.94, 79.81 -1.01 M0.84 90.08 C33.42 55.44, 64.86 19.21, 79.41 1.08 M7.25 89.43 C30.1 63.35, 48.88 39.04, 83.83 -0.64 M5.49 89.82 C24.44 68.23, 44.4 45.5, 85.7 -1.14 M12.36 90 C40.84 59.16, 66.42 27.81, 91.64 -0.01 M11.15 90.04 C41.37 56.24, 70.84 21.97, 90.29 0.66 M15.22 90.35 C45.77 59.31, 73.53 25.13, 97.43 -1.04 M16.67 89.8 C46 58.78, 74.74 25.95, 94.69 0.19 M23.85 90.6 C49.7 59.54, 77.13 27.75, 100.48 -0.55 M21.96 91.07 C39.62 69.95, 58.2 49.18, 100.42 0.18 M26.98 91.72 C44.77 69.62, 64.56 48.56, 105.52 -1.37 M26.01 91.07 C44.69 70.22, 61.55 49.18, 105.66 -0.12 M31.15 88.64 C60.25 56.15, 91.4 23.08, 112.61 0.51 M32.36 90.02 C61.2 58.17, 89.95 26.14, 111.45 0.68 M37.88 91.42 C59.8 64.1, 85.4 39.05, 116.86 1.58 M36.59 91.04 C65.36 59.24, 92.19 29.83, 115.75 0.33 M43.42 90.83 C64.5 65.02, 89.49 38.48, 121.59 -0.04 M42.29 90.38 C59.58 73.77, 74.94 55.06, 122.86 0.85 M48.59 91.26 C70.19 68.08, 88.7 43.61, 127.48 0.48 M47.35 91.04 C76.91 58.3, 106.26 23.88, 126.93 0.3 M55.16 91.56 C83.61 58.09, 113.05 25.73, 132.32 0.31 M54.53 90.29 C76.09 64.74, 98.81 39.74, 131.98 -0.94 M59.74 89.98 C84.32 61.07, 107.66 34.27, 136.8 1.9 M59.75 91.29 C82.79 62.01, 109.13 31.97, 138.06 -0.54 M66.15 88.95 C84.45 66.39, 106.97 41.44, 145 1.76 M64.7 90.57 C94.24 55.82, 124.56 22.26, 143.98 -0.7 M71.3 92.03 C90.6 62.1, 116.83 36.98, 146.17 -0.61 M69.08 91.67 C85.62 72.03, 101.74 53.79, 147.47 -0.59 M73.52 88.76 C91.13 72.32, 109.43 50.68, 155.15 -1.84 M75.27 90.67 C102.69 57.4, 130.48 25.39, 153.87 -0.77 M78.52 91.53 C110.38 57.81, 140.06 21.55, 158.25 2.16 M80.5 91.73 C109.04 57.05, 137.87 23.93, 158.34 0.39 M87.69 88.47 C106.82 70.7, 122.64 48.47, 165.6 1.09 M85.56 90.71 C109 62.08, 133.71 33.06, 164.52 0.19 M92 92.29 C109.1 71.8, 126.73 51.43, 169.04 -0.88 M90.97 90.66 C117.29 59.04, 143.2 28.82, 168.72 -0.71 M96.38 89.22 C125.04 58.92, 151.96 27.8, 174.49 -0.22 M95.71 89.46 C115.95 70.24, 135 48.15, 174.62 -0.85 M101.61 91.82 C126.56 60.92, 152.19 33.28, 179.83 -1.15 M101.34 91.32 C118.46 73.33, 132.79 54, 179.47 -0.32 M108.65 91.87 C129.99 64.92, 152.63 39.88, 181.37 7.98 M106.73 90.36 C133.53 58.24, 162.04 26.99, 178.82 7.53 M112.56 89.28 C130.17 68.21, 150.4 48.15, 178.74 13.73 M112.26 90.2 C126.34 74.53, 141.24 56.87, 179.81 11.84 M118.86 88.94 C136.17 66.64, 156.54 46.62, 180.32 16.8 M118.46 89.49 C132.7 72.77, 145.65 56.01, 180.83 18.12 M121.38 89.57 C146.46 65.02, 169.61 37.7, 180.19 23.62 M122.25 91.48 C145.76 65.35, 167.44 38.32, 180.81 24.55 M126.68 88.65 C143.17 70.81, 162.86 50.98, 180.01 31.25 M127.59 89.59 C147.6 66.03, 168.21 43.46, 179.46 31.57 M131.89 91.24 C146.19 75.61, 155.81 62.22, 180.75 36.96 M133.68 90.97 C148.41 73.3, 163.05 55.9, 179.22 36.11 M136.44 91.66 C150.29 76.48, 160.22 66.5, 179.83 43.36 M139 90.82 C151.21 77.59, 163.9 62.81, 180.79 43.49 M143.23 90.55 C153.64 79.55, 165.34 64.92, 180.29 47.56 M144.75 90.16 C156.08 77.03, 168.95 62.24, 180.59 49.18 M147.75 92.05 C159.39 79.86, 165.4 69.14, 178.49 54.79 M148.36 91.72 C155.91 80.88, 164.8 71.48, 180.75 55.14 M153.85 89.42 C162.39 82.53, 167.36 73.31, 182.01 59.22 M153.5 90.18 C164.46 78.55, 174.24 67.04, 179.36 61.36 M159.56 89.87 C163.6 84.66, 171.07 79.18, 181.34 65.67 M160.25 91.77 C163.59 86.4, 170.17 79.14, 180.45 68.18 M165.52 91.48 C168.58 87.35, 170.9 80.46, 179.08 74.66 M165.82 89.81 C171.21 85.34, 176.2 78.78, 179.47 74.12 M169.13 91.77 C174.44 86.07, 176.6 83.2, 179.26 79.57 M170.56 90.46 C172.46 86.97, 176.27 84.31, 180.58 79.65 M175.59 90.33 C176.44 89.32, 177.85 87.56, 180.91 84.88 M175.64 90.15 C176.91 89.03, 177.95 88, 180.11 85.36" stroke="#15aabf" stroke-width="0.5" fill="none"></path><path d="M1.77 1.68 C43.24 0.26, 86.54 -0.15, 178.89 0.63 M0.35 0.08 C60.12 1.57, 119.31 1.21, 180.09 -0.32 M178.15 -1.73 C180.43 37.7, 180.58 69.88, 180.81 90.42 M180.66 0.84 C179.83 25.72, 178.43 53.26, 180.39 90.03 M180.65 89.91 C142.36 92.99, 105.55 90.55, -1.44 90.07 M180.23 90.63 C128.81 90.85, 78.05 90.69, 0.78 89.86 M0.72 88.83 C1.31 68.12, 1.35 49.28, 0.34 1.4 M-0.16 90.48 C0.21 61.66, -0.63 31.04, 0.91 -0.31" stroke="#000000" stroke-width="1" fill="none"></path></g><g transform="translate(53.16666666666674 499.50000000000074) rotate(0 85 24)"><text x="85" y="17" font-family="Virgil, Segoe UI Emoji" font-size="20px" fill="#000000" text-anchor="middle" style="white-space: pre;" direction="ltr">Digitar comando </text><text x="85" y="41" font-family="Virgil, Segoe UI Emoji" font-size="20px" fill="#000000" text-anchor="middle" style="white-space: pre;" direction="ltr">com a pergunta</text></g><g stroke-linecap="round"><g transform="translate(126.16666666666663 580.0000000000007) rotate(0 -1.7525962515090612 20.26210027129389)"><path d="M-0.22 -0.48 C-0.68 6.5, -1.73 33.96, -2.21 41.19 M-1.79 -1.78 C-2.47 5.39, -3.44 35.17, -3.27 42.3" stroke="#000000" stroke-width="1" fill="none"></path></g><g transform="translate(126.16666666666663 580.0000000000007) rotate(0 -1.7525962515090612 20.26210027129389)"><path d="M-11.06 22.12 C-9.3 27.49, -4.07 35.95, -1.93 42.14 M-10.73 22.67 C-7.59 29.07, -6.85 34.83, -3.86 42.64" stroke="#000000" stroke-width="1" fill="none"></path></g><g transform="translate(126.16666666666663 580.0000000000007) rotate(0 -1.7525962515090612 20.26210027129389)"><path d="M3.32 22.27 C0.11 27.56, 0.37 35.97, -1.93 42.14 M3.65 22.83 C2.49 29.31, -1.06 35.02, -3.86 42.64" stroke="#000000" stroke-width="1" fill="none"></path></g></g><g stroke-linecap="round"><g transform="translate(243.16666666666663 683.0000000000007) rotate(0 28.76744054816197 1.762700326745403)"><path d="M0.8 0.63 C10.33 1.2, 48.23 3.02, 57.77 3.61 M-0.24 -0.08 C9.15 0.11, 47.55 1.38, 57.23 1.8" stroke="#000000" stroke-width="1" fill="none"></path></g><g transform="translate(243.16666666666663 683.0000000000007) rotate(0 28.76744054816197 1.762700326745403)"><path d="M31.12 11.85 C40.54 9.1, 50.95 4.04, 57.6 1.42 M29.85 9.89 C35.61 8.46, 41.77 6.12, 56.34 1.84" stroke="#000000" stroke-width="1" fill="none"></path></g><g transform="translate(243.16666666666663 683.0000000000007) rotate(0 28.76744054816197 1.762700326745403)"><path d="M31.85 -7.66 C41.05 -3.6, 51.21 -1.85, 57.6 1.42 M30.58 -9.62 C36.23 -6.95, 42.24 -5.19, 56.34 1.84" stroke="#000000" stroke-width="1" fill="none"></path></g></g><g stroke-linecap="round"><g transform="translate(397.16666666666663 638.0000000000007) rotate(0 0.5854771015984852 -22.395393668259487)"><path d="M-0.87 0.91 C-0.99 -6.52, -0.51 -36.3, -0.08 -43.72 M0.88 0.34 C1.05 -7.55, 1.99 -38.01, 2.06 -45.7" stroke="#000000" stroke-width="1" fill="none"></path></g><g transform="translate(397.16666666666663 638.0000000000007) rotate(0 0.5854771015984852 -22.395393668259487)"><path d="M10.66 -26.67 C6.94 -31.18, 4.56 -40.7, 2.57 -44.36 M8.77 -24.7 C7.39 -33.43, 4.42 -41.65, 1.78 -46.33" stroke="#000000" stroke-width="1" fill="none"></path></g><g transform="translate(397.16666666666663 638.0000000000007) rotate(0 0.5854771015984852 -22.395393668259487)"><path d="M-4.39 -26.99 C-2.77 -31.28, 0.19 -40.68, 2.57 -44.36 M-6.28 -25.02 C-1.85 -33.57, 0.98 -41.66, 1.78 -46.33" stroke="#000000" stroke-width="1" fill="none"></path></g></g><g stroke-linecap="round"><g transform="translate(399.16666666666663 458.00000000000074) rotate(0 -0.6863327848272434 -13.599884681101003)"><path d="M-0.02 -0.57 C0.06 -5.49, 0.25 -24.39, -0.08 -28.95 M-1.48 1.75 C-1.44 -3.1, -0.85 -23.19, -0.54 -27.91" stroke="#000000" stroke-width="1" fill="none"></path></g><g transform="translate(399.16666666666663 458.00000000000074) rotate(0 -0.6863327848272434 -13.599884681101003)"><path d="M3.01 -13.47 C1.43 -19.13, 1.53 -22.76, 0.05 -27.33 M3.45 -14.95 C2.73 -18.19, 0.74 -22.28, 0.14 -28.57" stroke="#000000" stroke-width="1" fill="none"></path></g><g transform="translate(399.16666666666663 458.00000000000074) rotate(0 -0.6863327848272434 -13.599884681101003)"><path d="M-6.57 -13.89 C-5.7 -19.44, -3.15 -22.96, 0.05 -27.33 M-6.12 -15.36 C-4.13 -18.52, -3.41 -22.49, 0.14 -28.57" stroke="#000000" stroke-width="1" fill="none"></path></g></g><g stroke-linecap="round"><g transform="translate(503.16666666666663 369.00000000000074) rotate(0 45.81670168198178 0.6911310910539896)"><path d="M-0.28 0.64 C14.75 1, 74.79 1.63, 89.82 1.64 M1.77 -0.08 C17.18 -0.01, 76.84 -0.47, 91.92 -0.14" stroke="#000000" stroke-width="1" fill="none"></path></g><g transform="translate(503.16666666666663 369.00000000000074) rotate(0 45.81670168198178 0.6911310910539896)"><path d="M64.73 8.01 C72.44 5.5, 78.56 5.84, 93.57 1.83 M62.71 10.43 C72.29 7.4, 80.73 3.27, 92.82 -0.39" stroke="#000000" stroke-width="1" fill="none"></path></g><g transform="translate(503.16666666666663 369.00000000000074) rotate(0 45.81670168198178 0.6911310910539896)"><path d="M64.84 -12.51 C72.43 -9.47, 78.52 -3.56, 93.57 1.83 M62.81 -10.09 C72.33 -6.93, 80.74 -4.87, 92.82 -0.39" stroke="#000000" stroke-width="1" fill="none"></path></g></g><g stroke-linecap="round"><g transform="translate(684.1666666666665 438.00000000000074) rotate(0 0.8331221111258174 17.517426155866133)"><path d="M0.36 1.06 C0.8 6.92, 2.11 29.04, 2.57 34.47 M-0.91 0.57 C-0.67 6.12, 0.84 26.89, 1.4 32.59" stroke="#000000" stroke-width="1" fill="none"></path></g><g transform="translate(684.1666666666665 438.00000000000074) rotate(0 0.8331221111258174 17.517426155866133)"><path d="M-4.25 16.49 C-3.05 21.9, -2.11 27.5, 1.07 33.45 M-5.11 16.55 C-3.14 21.87, -0.04 28.79, 1.37 32.31" stroke="#000000" stroke-width="1" fill="none"></path></g><g transform="translate(684.1666666666665 438.00000000000074) rotate(0 0.8331221111258174 17.517426155866133)"><path d="M7.39 15.51 C5.12 21.25, 2.6 27.15, 1.07 33.45 M6.52 15.57 C4.22 21.36, 3.05 28.64, 1.37 32.31" stroke="#000000" stroke-width="1" fill="none"></path></g></g><g stroke-linecap="round" transform="translate(652.1666666666661 653.0000000000007) rotate(0 36 37.5)"><path d="M6.85 17.88 C6.85 17.88, 6.85 17.88, 6.85 17.88 M6.85 17.88 C6.85 17.88, 6.85 17.88, 6.85 17.88 M5.39 27.39 C10.27 19.95, 13.97 14.73, 25.33 2.82 M4.44 27.03 C8.71 21.43, 13.81 16.27, 25.06 3.55 M1.53 36.45 C9.04 27.83, 15.64 17.03, 32.58 4.63 M0.43 36.04 C13.03 22.72, 24.02 10.76, 29.64 2.36 M2.33 42.62 C14.54 27.81, 25.51 16.35, 36.96 1.1 M2.83 41.38 C13.84 30.01, 23.22 15.78, 35.37 2.35 M5.14 44.54 C16.89 31.4, 30.06 17.78, 43.57 3.33 M2.97 46.04 C11.11 36.11, 19.86 25.68, 41.91 1.82 M7.41 49.56 C13.36 41.38, 23.22 31.41, 48.18 3.04 M6.11 50.58 C16.78 36.98, 27.52 25.41, 47.63 1.38 M7.63 55.1 C22.34 36.21, 37.66 20.87, 48.15 3.64 M7 54.88 C24.4 34.48, 40.31 17.33, 49.16 5.39 M6.83 57.29 C20.98 45, 27.69 32.6, 53.88 6.09 M8.17 59.05 C25.16 39.95, 40.04 20.99, 53.56 6.1 M10.14 63.08 C22.22 47, 37.54 29.39, 55.83 9.11 M10.08 63.88 C22.75 49.48, 35.16 34.4, 55.97 10.16 M14.99 64.36 C24.63 49.35, 38.3 35.49, 61.24 13.47 M12.1 65.26 C26.95 49.05, 42.62 32.52, 59.12 11.27 M17.37 65.91 C28.67 53.85, 39.42 40.27, 63.13 15.39 M17.36 68.41 C26.46 54.8, 36.98 44.2, 62.89 13.84 M19.35 71.67 C37.34 48.98, 56.53 26.32, 65.12 15.95 M19.01 70.54 C38.26 47.99, 56.08 26.77, 65.93 16.75 M23.21 72.18 C35.96 56.07, 50.26 39.75, 66.99 21.18 M23.08 72.51 C33.27 59.39, 43.61 47.24, 67.85 19.73 M25.11 73.68 C43.35 54.36, 61.03 35.15, 68.84 23.67 M26.72 74.33 C38.09 60.61, 50.05 47.12, 70.04 25.3 M33.13 72.98 C42.12 62.35, 50.71 55.99, 70.67 29.5 M31.07 74.26 C47.89 57.54, 62.4 40.52, 72.05 27.97 M39.69 72.63 C44.77 63.47, 52.06 54.24, 72.61 31.79 M38.24 74.35 C45.85 65.65, 51.68 56.52, 72.36 32.2 M44.95 74.24 C51.38 64.75, 58.58 58.38, 73.75 37.92 M43.49 74.07 C49.82 64.49, 57.28 57.18, 74.02 37.78 M49.04 72.63 C55.55 66.11, 60.86 58.6, 70.46 45.83 M48.08 72.75 C53.95 67.99, 58.75 62.12, 71.59 46.63" stroke="#fa5252" stroke-width="0.5" fill="none"></path><path d="M45.17 1.07 C51.82 2.75, 59.84 9.36, 64.47 15.04 C69.09 20.73, 72.75 28.05, 72.91 35.19 C73.08 42.32, 69.49 51.59, 65.46 57.84 C61.44 64.09, 55.4 70.04, 48.77 72.7 C42.13 75.36, 32.46 75.71, 25.64 73.81 C18.82 71.91, 12.09 67.06, 7.83 61.31 C3.58 55.57, 0.28 46.59, 0.12 39.35 C-0.05 32.11, 2.84 23.9, 6.86 17.87 C10.87 11.83, 16.5 5.28, 24.21 3.12 C31.91 0.96, 47.32 3.91, 53.09 4.89 C58.86 5.88, 59.16 8.77, 58.83 9.03 M22.3 2.97 C28.38 -0.46, 37.82 -1.06, 44.43 0.64 C51.05 2.33, 57.37 7.56, 61.99 13.13 C66.6 18.7, 71 26.83, 72.14 34.07 C73.29 41.32, 72.59 50.21, 68.85 56.61 C65.1 63, 56.19 69.51, 49.68 72.43 C43.16 75.34, 36.56 75.79, 29.75 74.09 C22.95 72.4, 13.69 67.6, 8.85 62.25 C4 56.9, 1.22 49.01, 0.7 42.01 C0.19 35.01, 2.32 26.5, 5.75 20.24 C9.18 13.99, 18.44 7.03, 21.28 4.48 C24.13 1.92, 22.52 4.64, 22.81 4.89" stroke="#000000" stroke-width="1" fill="none"></path></g><g stroke-linecap="round" transform="translate(98.43939393939388 303.0909090909091) rotate(0 40.5 38.99999999999997)"><path d="M8.44 13.96 C8.44 13.96, 8.44 13.96, 8.44 13.96 M8.44 13.96 C8.44 13.96, 8.44 13.96, 8.44 13.96 M4.25 26.7 C10.49 19.89, 17.22 9.99, 21.97 7.84 M4.43 24.65 C6.92 21.13, 10.79 16.32, 19.83 7.63 M2.52 35.38 C13.64 23.72, 23.68 8.86, 27.41 1.91 M0.09 35.1 C10.77 24.21, 19.67 12.29, 29.19 3.34 M0.41 42.04 C12.14 26.82, 20.52 17.93, 32.05 4.72 M0.13 41.69 C9.88 29.29, 19.27 18.96, 33.47 3.8 M0.78 43.65 C9.34 35.8, 18.73 26.92, 39.59 1.52 M1.67 44.82 C12.1 33.01, 22.84 20.76, 40.39 1.97 M2.88 50.29 C14.98 35.82, 28.35 20.89, 47.07 0.83 M3.03 51.96 C15.01 35.18, 29.11 20.46, 44.59 2.25 M2.18 55.25 C22.07 36.8, 42.44 14.05, 49.22 3.28 M3.84 56.48 C13.86 44.91, 22.33 33.92, 50.32 2.01 M6.22 57.67 C23.45 40.78, 40.26 20.74, 54.29 3.71 M5.18 58.98 C23.78 39.01, 40.88 19.86, 53.55 4.43 M9.02 62.18 C20.47 45.47, 35.29 32.84, 57.8 7.59 M8.38 61.62 C19.34 48.87, 31.24 36.5, 58.07 5.53 M11.6 64.28 C25.45 47.5, 41.08 30.69, 60.99 10.07 M11.75 64.15 C24.47 49.66, 37.18 35.44, 60.25 7.98 M13.69 68.44 C25.5 53.05, 37.55 40.04, 64.68 8.97 M14.69 66.76 C31.81 48.95, 48.68 28.8, 65.17 10.7 M15.58 72.47 C37.27 49.04, 54.01 30.81, 67.02 12.55 M17.81 71.08 C28.11 59.32, 36.72 46.34, 68.74 13.4 M19.87 71.43 C41.03 49.56, 60.37 24.71, 72.6 16.19 M20.99 72.8 C38.22 51.22, 55.52 30.33, 71.04 13.87 M23.93 75.46 C43.92 51.95, 62.16 30.3, 73.63 20.01 M24.19 74.22 C40.04 56.38, 55.53 39.52, 73.94 18.37 M29.77 74.22 C44.03 58.11, 56.19 41.9, 73.63 21.95 M29.59 75.29 C39.21 64.26, 48.45 52.86, 74.98 23.33 M34.43 75.95 C46.6 60.39, 60.94 42.98, 76.66 27.46 M34.29 77.45 C48.03 59.45, 62.13 43.22, 76.95 25.74 M35.75 75.87 C48.36 66.22, 60.8 53.93, 77.74 29.1 M38.44 78.69 C49.45 65.91, 59.88 51.7, 78.67 29.45 M44.2 78.31 C56.1 61.24, 70.26 44.5, 81.95 32.89 M43.34 78.33 C54.06 64.39, 67.28 50.05, 80.36 34.23 M50 75.57 C58.55 63.31, 72.46 51.93, 78.31 43.22 M48.87 76.61 C60.68 63.9, 72.67 51.42, 79.81 41.34 M58.92 74.58 C65.5 66.07, 69.47 57.77, 80.06 47.21 M57.66 74.01 C65.02 64.49, 71.92 55.68, 79.02 48.54" stroke="#82c91e" stroke-width="0.5" fill="none"></path><path d="M51.79 1.58 C58.83 2.96, 66.04 8.24, 70.67 13.56 C75.31 18.87, 78.5 26.54, 79.61 33.47 C80.72 40.4, 80.23 48.81, 77.35 55.15 C74.46 61.49, 68.2 67.69, 62.29 71.53 C56.39 75.37, 49.14 78.05, 41.93 78.18 C34.72 78.31, 25.5 75.88, 19.05 72.32 C12.6 68.75, 6.35 63.04, 3.23 56.8 C0.11 50.55, -0.56 42.02, 0.33 34.85 C1.23 27.68, 3.99 19.25, 8.6 13.78 C13.21 8.31, 20.71 4.18, 28 2.06 C35.28 -0.07, 47.9 0.85, 52.29 1.03 C56.67 1.21, 54.41 2.44, 54.32 3.14 M42.32 0.19 C49.44 -0.25, 58.2 2.42, 64.38 6.62 C70.57 10.82, 76.71 18.84, 79.43 25.4 C82.14 31.95, 82.19 39.14, 80.66 45.93 C79.13 52.71, 75.44 61.09, 70.25 66.09 C65.07 71.1, 56.43 74.1, 49.55 75.97 C42.68 77.85, 35.57 79.45, 29 77.35 C22.43 75.25, 14.92 69.27, 10.12 63.38 C5.32 57.49, 1.33 48.87, 0.21 42.01 C-0.92 35.15, 0.29 28.3, 3.37 22.24 C6.45 16.18, 12.16 9.56, 18.69 5.62 C25.21 1.68, 38.73 -0.65, 42.54 -1.4 C46.35 -2.14, 41.8 0.12, 41.54 1.16" stroke="#000000" stroke-width="1" fill="none"></path></g><g transform="translate(103.43939393939388 330.09090909090907) rotate(0 35.5 12)"><text x="35.5" y="17" font-family="Virgil, Segoe UI Emoji" font-size="20px" fill="#000000" text-anchor="middle" style="white-space: pre;" direction="ltr">Start</text></g><g transform="translate(657.1666666666661 678.5000000000007) rotate(0 31 12)"><text x="31" y="17" font-family="Virgil, Segoe UI Emoji" font-size="20px" fill="#000000" text-anchor="middle" style="white-space: pre;" direction="ltr">End</text></g><g stroke-linecap="round"><g transform="translate(688.9781275126616 594.0000000000007) rotate(0 0.9768204454931038 23.776615666475664)"><path d="M-0.82 -1.16 C-0.56 6.49, 0.25 38.95, 0.57 47.08 M0.95 0.84 C1.66 9.23, 2.91 41.25, 2.77 48.72" stroke="#000000" stroke-width="1" fill="none"></path></g><g transform="translate(688.9781275126616 594.0000000000007) rotate(0 0.9768204454931038 23.776615666475664)"><path d="M-7.55 25.18 C-3.24 30.97, -0.53 36.56, 1.72 48.46 M-6.38 26.09 C-2.83 33.06, -0.08 41.54, 2.17 48.78" stroke="#000000" stroke-width="1" fill="none"></path></g><g transform="translate(688.9781275126616 594.0000000000007) rotate(0 0.9768204454931038 23.776615666475664)"><path d="M8.49 24.92 C9.27 30.66, 8.45 36.3, 1.72 48.46 M9.66 25.83 C8.14 32.8, 5.83 41.37, 2.17 48.78" stroke="#000000" stroke-width="1" fill="none"></path></g></g><g stroke-linecap="round"><g transform="translate(138.22628719345403 392.10731683674277) rotate(0 -0.6863881473700246 37.82964265643648)"><path d="M-0.37 -0.04 C-0.74 12.88, -2.93 63.99, -3.01 76.76 M1.64 -1.1 C1.69 11.54, -0.44 62.47, -0.89 75.09" stroke="#000000" stroke-width="1" fill="none"></path></g><g transform="translate(138.22628719345403 392.10731683674277) rotate(0 -0.6863881473700246 37.82964265643648)"><path d="M-10.12 44.65 C-6.63 54.96, -4.75 60.94, -1.14 73.28 M-9.79 46.54 C-7.14 54.01, -6.1 61.46, -1.81 75.21" stroke="#000000" stroke-width="1" fill="none"></path></g><g transform="translate(138.22628719345403 392.10731683674277) rotate(0 -0.6863881473700246 37.82964265643648)"><path d="M10.39 45.44 C9.07 55.5, 6.13 61.3, -1.14 73.28 M10.72 47.33 C7.99 54.77, 3.64 62.02, -1.81 75.21" stroke="#000000" stroke-width="1" fill="none"></path></g></g><g stroke-linecap="round" transform="translate(10 10) rotate(0 73.63636363636363 39.09090909090909)"><path d="M0 0 C0 0, 0 0, 0 0 M0 0 C0 0, 0 0, 0 0 M-0.26 6.4 C1.07 4.86, 2.4 3.33, 4.99 0.36 M-0.26 6.4 C0.8 5.18, 1.86 3.96, 4.99 0.36 M0.13 12.04 C2.86 8.91, 5.58 5.77, 10.63 -0.03 M0.13 12.04 C3.5 8.16, 6.87 4.29, 10.63 -0.03 M-0.13 18.44 C5.52 11.94, 11.17 5.44, 15.62 0.33 M-0.13 18.44 C3.1 14.73, 6.32 11.02, 15.62 0.33 M0.27 24.08 C5.92 17.58, 11.56 11.08, 21.26 -0.07 M0.27 24.08 C7.71 15.52, 15.15 6.96, 21.26 -0.07 M0 30.48 C8.73 20.45, 17.45 10.41, 26.25 0.29 M0 30.48 C6.57 22.93, 13.13 15.38, 26.25 0.29 M-0.26 36.88 C8.04 27.33, 16.33 17.79, 31.89 -0.1 M-0.26 36.88 C9.6 25.54, 19.45 14.21, 31.89 -0.1 M0.14 42.52 C9.95 31.23, 19.76 19.95, 36.88 0.26 M0.14 42.52 C8.62 32.77, 17.1 23.01, 36.88 0.26 M-0.12 48.92 C9.93 37.35, 19.98 25.79, 42.52 -0.14 M-0.12 48.92 C15.98 30.39, 32.08 11.87, 42.52 -0.14 M0.27 54.56 C11.58 41.56, 22.88 28.55, 47.51 0.22 M0.27 54.56 C14.71 37.95, 29.15 21.34, 47.51 0.22 M0.01 60.96 C15.73 42.87, 31.45 24.79, 53.15 -0.17 M0.01 60.96 C17.78 40.52, 35.54 20.08, 53.15 -0.17 M-0.25 67.36 C17.85 46.54, 35.95 25.72, 58.14 0.19 M-0.25 67.36 C17.22 47.26, 34.68 27.17, 58.14 0.19 M0.14 73 C13.92 57.15, 27.7 41.3, 63.78 -0.21 M0.14 73 C19.79 50.39, 39.45 27.79, 63.78 -0.21 M0.54 78.64 C22.67 53.19, 44.8 27.73, 68.77 0.15 M0.54 78.64 C21.07 55.02, 41.61 31.4, 68.77 0.15 M5.52 79 C23.44 58.39, 41.36 37.78, 74.41 -0.24 M5.52 79 C32.99 47.41, 60.45 15.81, 74.41 -0.24 M11.17 78.61 C32.46 54.12, 53.75 29.63, 79.4 0.12 M11.17 78.61 C29.36 57.68, 47.56 36.75, 79.4 0.12 M16.15 78.97 C41.88 49.37, 67.61 19.77, 85.04 -0.28 M16.15 78.97 C34.57 57.78, 52.99 36.6, 85.04 -0.28 M21.8 78.57 C41.38 56.04, 60.97 33.51, 90.03 0.08 M21.8 78.57 C36.63 61.51, 51.46 44.45, 90.03 0.08 M26.78 78.93 C53.5 48.2, 80.22 17.46, 95.67 -0.31 M26.78 78.93 C50.46 51.7, 74.14 24.46, 95.67 -0.31 M32.43 78.54 C49.34 59.09, 66.24 39.64, 100.66 0.05 M32.43 78.54 C48.8 59.71, 65.17 40.88, 100.66 0.05 M37.41 78.9 C52.49 61.56, 67.57 44.22, 106.3 -0.34 M37.41 78.9 C52.73 61.28, 68.05 43.66, 106.3 -0.34 M43.06 78.5 C68.78 48.91, 94.51 19.31, 111.29 0.02 M43.06 78.5 C62.61 56.01, 82.17 33.51, 111.29 0.02 M48.04 78.87 C66.22 57.96, 84.39 37.06, 116.27 0.38 M48.04 78.87 C66.03 58.18, 84.01 37.5, 116.27 0.38 M53.69 78.47 C70.2 59.48, 86.71 40.49, 121.92 -0.02 M53.69 78.47 C79.31 48.99, 104.94 19.52, 121.92 -0.02 M58.67 78.83 C73.32 61.98, 87.96 45.14, 126.91 0.34 M58.67 78.83 C85.49 47.98, 112.31 17.14, 126.91 0.34 M64.32 78.44 C91.2 47.51, 118.08 16.59, 132.55 -0.05 M64.32 78.44 C90.95 47.8, 117.58 17.16, 132.55 -0.05 M69.3 78.8 C85.17 60.55, 101.03 42.3, 137.54 0.31 M69.3 78.8 C89.93 55.07, 110.55 31.34, 137.54 0.31 M74.95 78.4 C100.13 49.43, 125.31 20.46, 143.18 -0.09 M74.95 78.4 C94.07 56.41, 113.19 34.41, 143.18 -0.09 M79.94 78.76 C105.38 49.49, 130.83 20.21, 148.17 0.27 M79.94 78.76 C96.88 59.26, 113.83 39.77, 148.17 0.27 M85.58 78.37 C103.49 57.76, 121.41 37.15, 147.9 6.67 M85.58 78.37 C101.79 59.72, 118 41.06, 147.9 6.67 M90.57 78.73 C111.89 54.2, 133.21 29.67, 147.64 13.07 M90.57 78.73 C105.07 62.04, 119.57 45.36, 147.64 13.07 M96.21 78.33 C109.36 63.2, 122.51 48.07, 148.04 18.71 M96.21 78.33 C107.12 65.78, 118.04 53.22, 148.04 18.71 M101.2 78.69 C113.12 64.98, 125.04 51.26, 147.78 25.11 M101.2 78.69 C115.53 62.2, 129.86 45.72, 147.78 25.11 M106.84 78.3 C121.6 61.32, 136.35 44.35, 148.17 30.75 M106.84 78.3 C118.32 65.09, 129.79 51.89, 148.17 30.75 M111.83 78.66 C123.61 65.1, 135.39 51.55, 147.91 37.15 M111.83 78.66 C124.93 63.58, 138.03 48.51, 147.91 37.15 M116.81 79.02 C125.16 69.42, 133.5 59.82, 147.65 43.55 M116.81 79.02 C125.24 69.33, 133.66 59.63, 147.65 43.55 M122.46 78.62 C132.07 67.56, 141.69 56.5, 148.04 49.19 M122.46 78.62 C131.16 68.62, 139.86 58.61, 148.04 49.19 M127.44 78.98 C132.58 73.08, 137.71 67.17, 147.78 55.59 M127.44 78.98 C133.03 72.56, 138.61 66.13, 147.78 55.59 M133.09 78.59 C137.29 73.75, 141.49 68.92, 148.17 61.23 M133.09 78.59 C137.97 72.97, 142.85 67.36, 148.17 61.23 M138.07 78.95 C141.46 75.05, 144.85 71.15, 147.91 67.63 M138.07 78.95 C140.29 76.4, 142.5 73.86, 147.91 67.63 M143.72 78.55 C145.27 76.77, 146.82 74.98, 147.65 74.03 M143.72 78.55 C145.15 76.9, 146.59 75.25, 147.65 74.03" stroke="#15aabf" stroke-width="0.5" fill="none"></path><path d="M0 0 C41.19 0, 82.39 0, 147.27 0 M0 0 C30.42 0, 60.84 0, 147.27 0 M147.27 0 C147.27 15.97, 147.27 31.95, 147.27 78.18 M147.27 0 C147.27 21.95, 147.27 43.89, 147.27 78.18 M147.27 78.18 C93.78 78.18, 40.28 78.18, 0 78.18 M147.27 78.18 C112.84 78.18, 78.42 78.18, 0 78.18 M0 78.18 C0 53.93, 0 29.67, 0 0 M0 78.18 C0 61.39, 0 44.6, 0 0" stroke="#000000" stroke-width="1" fill="none"></path></g><g transform="translate(15 24.590909090909093) rotate(0 68.5 24)"><text x="68.5" y="17" font-family="Virgil, Segoe UI Emoji" font-size="20px" fill="#000000" text-anchor="middle" style="white-space: pre;" direction="ltr">Ações de </text><text x="68.5" y="41" font-family="Virgil, Segoe UI Emoji" font-size="20px" fill="#000000" text-anchor="middle" style="white-space: pre;" direction="ltr">usuário</text></g><g stroke-linecap="round" transform="translate(10 101.81818181818176) rotate(0 73.63636363636363 39.09090909090909)"><path d="M0 0 C0 0, 0 0, 0 0 M0 0 C0 0, 0 0, 0 0 M-0.26 6.4 C1.8 4.03, 3.85 1.66, 4.99 0.36 M-0.26 6.4 C1.08 4.85, 2.43 3.3, 4.99 0.36 M0.13 12.04 C2.34 9.51, 4.54 6.97, 10.63 -0.03 M0.13 12.04 C2.9 8.86, 5.66 5.68, 10.63 -0.03 M-0.13 18.44 C5.07 12.46, 10.26 6.49, 15.62 0.33 M-0.13 18.44 C3.66 14.08, 7.45 9.72, 15.62 0.33 M0.27 24.08 C7.67 15.57, 15.07 7.05, 21.26 -0.07 M0.27 24.08 C5.95 17.54, 11.63 11.01, 21.26 -0.07 M0 30.48 C8.58 20.62, 17.15 10.76, 26.25 0.29 M0 30.48 C6.17 23.38, 12.34 16.29, 26.25 0.29 M-0.26 36.88 C9.53 25.62, 19.32 14.36, 31.89 -0.1 M-0.26 36.88 C11.25 23.64, 22.76 10.39, 31.89 -0.1 M0.14 42.52 C11.12 29.89, 22.1 17.26, 36.88 0.26 M0.14 42.52 C13.02 27.71, 25.9 12.89, 36.88 0.26 M-0.12 48.92 C10.09 37.17, 20.31 25.42, 42.52 -0.14 M-0.12 48.92 C14.96 31.57, 30.04 14.22, 42.52 -0.14 M0.27 54.56 C15.8 36.7, 31.33 18.84, 47.51 0.22 M0.27 54.56 C13.61 39.22, 26.95 23.87, 47.51 0.22 M0.01 60.96 C21.15 36.64, 42.3 12.31, 53.15 -0.17 M0.01 60.96 C19.66 38.35, 39.31 15.75, 53.15 -0.17 M-0.25 67.36 C15.15 49.64, 30.56 31.92, 58.14 0.19 M-0.25 67.36 C17.86 46.52, 35.98 25.68, 58.14 0.19 M0.14 73 C18.28 52.14, 36.41 31.28, 63.78 -0.21 M0.14 73 C13.09 58.11, 26.03 43.22, 63.78 -0.21 M0.54 78.64 C22.2 53.72, 43.87 28.8, 68.77 0.15 M0.54 78.64 C20.87 55.25, 41.21 31.85, 68.77 0.15 M5.52 79 C24.25 57.46, 42.98 35.91, 74.41 -0.24 M5.52 79 C28.65 52.4, 51.77 25.8, 74.41 -0.24 M11.17 78.61 C29.51 57.51, 47.84 36.42, 79.4 0.12 M11.17 78.61 C31.25 55.51, 51.33 32.41, 79.4 0.12 M16.15 78.97 C43.4 47.63, 70.64 16.29, 85.04 -0.28 M16.15 78.97 C39.04 52.65, 61.92 26.32, 85.04 -0.28 M21.8 78.57 C39.69 58, 57.57 37.42, 90.03 0.08 M21.8 78.57 C44.43 52.54, 67.06 26.51, 90.03 0.08 M26.78 78.93 C51.45 50.56, 76.12 22.18, 95.67 -0.31 M26.78 78.93 C43.51 59.69, 60.24 40.45, 95.67 -0.31 M32.43 78.54 C46.61 62.22, 60.8 45.9, 100.66 0.05 M32.43 78.54 C47.94 60.7, 63.45 42.85, 100.66 0.05 M37.41 78.9 C59.99 52.93, 82.57 26.95, 106.3 -0.34 M37.41 78.9 C51.33 62.89, 65.25 46.88, 106.3 -0.34 M43.06 78.5 C69.11 48.54, 95.16 18.57, 111.29 0.02 M43.06 78.5 C69.18 48.46, 95.29 18.41, 111.29 0.02 M48.04 78.87 C71.12 52.32, 94.19 25.78, 116.27 0.38 M48.04 78.87 C63.63 60.94, 79.21 43.01, 116.27 0.38 M53.69 78.47 C69.06 60.78, 84.44 43.1, 121.92 -0.02 M53.69 78.47 C79.89 48.33, 106.08 18.2, 121.92 -0.02 M58.67 78.83 C78.36 56.19, 98.04 33.54, 126.91 0.34 M58.67 78.83 C74.03 61.17, 89.38 43.51, 126.91 0.34 M64.32 78.44 C87.9 51.31, 111.47 24.19, 132.55 -0.05 M64.32 78.44 C78.04 62.65, 91.76 46.87, 132.55 -0.05 M69.3 78.8 C92.75 51.82, 116.2 24.85, 137.54 0.31 M69.3 78.8 C95.19 49.02, 121.08 19.24, 137.54 0.31 M74.95 78.4 C96.46 53.66, 117.96 28.92, 143.18 -0.09 M74.95 78.4 C101.48 47.88, 128 17.37, 143.18 -0.09 M79.94 78.76 C102.74 52.53, 125.55 26.29, 148.17 0.27 M79.94 78.76 C104.73 50.24, 129.52 21.72, 148.17 0.27 M85.58 78.37 C102.57 58.82, 119.56 39.28, 147.9 6.67 M85.58 78.37 C103.41 57.85, 121.24 37.34, 147.9 6.67 M90.57 78.73 C110.9 55.33, 131.24 31.94, 147.64 13.07 M90.57 78.73 C109.57 56.86, 128.58 34.99, 147.64 13.07 M96.21 78.33 C112.88 59.15, 129.55 39.97, 148.04 18.71 M96.21 78.33 C107.43 65.43, 118.64 52.52, 148.04 18.71 M101.2 78.69 C118.51 58.78, 135.82 38.86, 147.78 25.11 M101.2 78.69 C116.52 61.06, 131.85 43.43, 147.78 25.11 M106.84 78.3 C120.56 62.51, 134.29 46.72, 148.17 30.75 M106.84 78.3 C118.72 64.63, 130.61 50.96, 148.17 30.75 M111.83 78.66 C119.32 70.04, 126.82 61.41, 147.91 37.15 M111.83 78.66 C121.8 67.19, 131.77 55.72, 147.91 37.15 M116.81 79.02 C127.26 67, 137.71 54.97, 147.65 43.55 M116.81 79.02 C128.88 65.13, 140.96 51.24, 147.65 43.55 M122.46 78.62 C131.6 68.1, 140.75 57.58, 148.04 49.19 M122.46 78.62 C132.29 67.31, 142.12 56, 148.04 49.19 M127.44 78.98 C134.42 70.96, 141.4 62.93, 147.78 55.59 M127.44 78.98 C131.61 74.19, 135.78 69.4, 147.78 55.59 M133.09 78.59 C138.81 72, 144.54 65.41, 148.17 61.23 M133.09 78.59 C138.31 72.57, 143.54 66.56, 148.17 61.23 M138.07 78.95 C141.13 75.43, 144.19 71.91, 147.91 67.63 M138.07 78.95 C141.9 74.55, 145.72 70.15, 147.91 67.63 M143.72 78.55 C144.89 77.2, 146.06 75.85, 147.65 74.03 M143.72 78.55 C145.06 77.01, 146.4 75.47, 147.65 74.03" stroke="#fab005" stroke-width="0.5" fill="none"></path><path d="M0 0 C40.9 0, 81.79 0, 147.27 0 M0 0 C45.2 0, 90.4 0, 147.27 0 M147.27 0 C147.27 20.02, 147.27 40.03, 147.27 78.18 M147.27 0 C147.27 31.03, 147.27 62.06, 147.27 78.18 M147.27 78.18 C90.92 78.18, 34.57 78.18, 0 78.18 M147.27 78.18 C88.56 78.18, 29.86 78.18, 0 78.18 M0 78.18 C0 49.84, 0 21.49, 0 0 M0 78.18 C0 50.36, 0 22.54, 0 0" stroke="#000000" stroke-width="1" fill="none"></path></g><g transform="translate(15 127.90909090909082) rotate(0 68.5 12)"><text x="68.5" y="17" font-family="Virgil, Segoe UI Emoji" font-size="20px" fill="#000000" text-anchor="middle" style="white-space: pre;" direction="ltr">Ações do bot</text></g><g stroke-linecap="round" transform="translate(12.5 243.63636363636368) rotate(0 532.2727272727274 269.5454545454545)"><path d="M0 0 C251.38 0, 502.75 0, 1064.55 0 M0 0 C283.62 0, 567.23 0, 1064.55 0 M1064.55 0 C1064.55 195.17, 1064.55 390.34, 1064.55 539.09 M1064.55 0 C1064.55 168.14, 1064.55 336.28, 1064.55 539.09 M1064.55 539.09 C822.73 539.09, 580.91 539.09, 0 539.09 M1064.55 539.09 C691.31 539.09, 318.08 539.09, 0 539.09 M0 539.09 C0 406.87, 0 274.65, 0 0 M0 539.09 C0 323.6, 0 108.11, 0 0" stroke="#000000" stroke-width="1" fill="none"></path></g><g transform="translate(380.81818181818176 247.36363636363637) rotate(0 41 13)"><text x="41" y="18" font-family="Virgil, Segoe UI Emoji" font-size="20px" fill="#000000" text-anchor="middle" style="white-space: pre;" direction="ltr">Versão 1</text></g><g stroke-linecap="round" transform="translate(881.818181818182 475.4545454545453) rotate(0 73.63636363636363 53.5)"><path d="M0 0 C0 0, 0 0, 0 0 M0 0 C0 0, 0 0, 0 0 M-0.26 6.4 C1.24 4.67, 2.75 2.94, 4.99 0.36 M-0.26 6.4 C1.4 4.49, 3.06 2.58, 4.99 0.36 M0.13 12.04 C2.31 9.54, 4.49 7.03, 10.63 -0.03 M0.13 12.04 C2.3 9.54, 4.47 7.05, 10.63 -0.03 M-0.13 18.44 C4.09 13.58, 8.31 8.73, 15.62 0.33 M-0.13 18.44 C4.1 13.57, 8.34 8.7, 15.62 0.33 M0.27 24.08 C8.54 14.57, 16.8 5.06, 21.26 -0.07 M0.27 24.08 C8.04 15.14, 15.81 6.21, 21.26 -0.07 M0 30.48 C10.09 18.88, 20.18 7.27, 26.25 0.29 M0 30.48 C8.08 21.19, 16.15 11.9, 26.25 0.29 M-0.26 36.88 C8 27.38, 16.25 17.89, 31.89 -0.1 M-0.26 36.88 C11.45 23.41, 23.15 9.95, 31.89 -0.1 M0.14 42.52 C14.46 26.04, 28.79 9.56, 36.88 0.26 M0.14 42.52 C9.81 31.4, 19.48 20.27, 36.88 0.26 M-0.12 48.92 C11.3 35.77, 22.73 22.63, 42.52 -0.14 M-0.12 48.92 C13.82 32.88, 27.77 16.83, 42.52 -0.14 M0.27 54.56 C10.85 42.4, 21.42 30.23, 47.51 0.22 M0.27 54.56 C11.21 41.98, 22.14 29.41, 47.51 0.22 M0.01 60.96 C20.4 37.51, 40.78 14.05, 53.15 -0.17 M0.01 60.96 C19.3 38.77, 38.58 16.59, 53.15 -0.17 M-0.25 67.36 C11.99 53.28, 24.22 39.2, 58.14 0.19 M-0.25 67.36 C21.6 42.22, 43.46 17.08, 58.14 0.19 M0.14 73 C15.7 55.11, 31.25 37.22, 63.78 -0.21 M0.14 73 C21.87 48.01, 43.59 23.02, 63.78 -0.21 M-0.12 79.4 C17.43 59.21, 34.98 39.02, 68.77 0.15 M-0.12 79.4 C21.86 54.12, 43.83 28.84, 68.77 0.15 M0.28 85.04 C28.09 53.04, 55.91 21.04, 74.41 -0.24 M0.28 85.04 C22.33 59.67, 44.39 34.3, 74.41 -0.24 M0.01 91.44 C19.99 68.46, 39.97 45.48, 79.4 0.12 M0.01 91.44 C28.49 58.68, 56.96 25.93, 79.4 0.12 M-0.25 97.84 C32.62 60.03, 65.49 22.22, 85.04 -0.28 M-0.25 97.84 C19.56 75.05, 39.37 52.27, 85.04 -0.28 M0.15 103.48 C25.01 74.87, 49.88 46.27, 90.03 0.08 M0.15 103.48 C22.79 77.43, 45.44 51.38, 90.03 0.08 M1.2 108.37 C36.02 68.31, 70.84 28.25, 95.67 -0.31 M1.2 108.37 C30.67 74.46, 60.15 40.56, 95.67 -0.31 M6.84 107.97 C43.5 65.8, 80.16 23.63, 100.66 0.05 M6.84 107.97 C27.77 83.9, 48.7 59.82, 100.66 0.05 M11.83 108.33 C40.45 75.41, 69.07 42.48, 106.3 -0.34 M11.83 108.33 C37.22 79.12, 62.62 49.9, 106.3 -0.34 M17.47 107.94 C39.91 82.13, 62.34 56.32, 111.29 0.02 M17.47 107.94 C51.43 68.88, 85.38 29.82, 111.29 0.02 M22.46 108.3 C46 81.22, 69.54 54.14, 116.27 0.38 M22.46 108.3 C41.27 86.66, 60.07 65.03, 116.27 0.38 M28.1 107.9 C51.69 80.76, 75.29 53.62, 121.92 -0.02 M28.1 107.9 C49.12 83.72, 70.14 59.54, 121.92 -0.02 M33.09 108.26 C66.79 69.49, 100.5 30.72, 126.91 0.34 M33.09 108.26 C67.82 68.31, 102.56 28.35, 126.91 0.34 M38.73 107.87 C61.42 81.78, 84.1 55.68, 132.55 -0.05 M38.73 107.87 C60.37 82.98, 82 58.1, 132.55 -0.05 M43.72 108.23 C68.04 80.25, 92.36 52.27, 137.54 0.31 M43.72 108.23 C63.15 85.88, 82.58 63.53, 137.54 0.31 M49.36 107.84 C68.92 85.34, 88.47 62.84, 143.18 -0.09 M49.36 107.84 C74.53 78.88, 99.71 49.92, 143.18 -0.09 M54.35 108.2 C79.34 79.44, 104.34 50.69, 148.17 0.27 M54.35 108.2 C83.02 75.21, 111.7 42.23, 148.17 0.27 M59.34 108.56 C88.94 74.5, 118.54 40.45, 147.9 6.67 M59.34 108.56 C84.98 79.05, 110.63 49.55, 147.9 6.67 M64.98 108.16 C96.45 71.95, 127.93 35.75, 147.64 13.07 M64.98 108.16 C83.66 86.67, 102.35 65.17, 147.64 13.07 M69.97 108.52 C100.12 73.83, 130.28 39.13, 148.04 18.71 M69.97 108.52 C94.36 80.46, 118.75 52.4, 148.04 18.71 M75.61 108.13 C96.29 84.34, 116.97 60.55, 147.78 25.11 M75.61 108.13 C96.84 83.71, 118.06 59.29, 147.78 25.11 M80.6 108.49 C101.96 83.91, 123.32 59.34, 148.17 30.75 M80.6 108.49 C95.5 91.34, 110.4 74.2, 148.17 30.75 M86.24 108.09 C107.98 83.09, 129.72 58.08, 147.91 37.15 M86.24 108.09 C98.66 93.8, 111.08 79.52, 147.91 37.15 M91.23 108.45 C105.87 91.6, 120.52 74.75, 147.65 43.55 M91.23 108.45 C111.71 84.88, 132.2 61.32, 147.65 43.55 M96.87 108.06 C108.73 94.42, 120.58 80.78, 148.04 49.19 M96.87 108.06 C107.35 95.99, 117.84 83.93, 148.04 49.19 M101.86 108.42 C117.33 90.61, 132.81 72.81, 147.78 55.59 M101.86 108.42 C118.16 89.66, 134.47 70.9, 147.78 55.59 M107.5 108.02 C118.14 95.78, 128.78 83.54, 148.17 61.23 M107.5 108.02 C120.81 92.71, 134.13 77.39, 148.17 61.23 M112.49 108.38 C121.45 98.07, 130.41 87.76, 147.91 67.63 M112.49 108.38 C122.3 97.1, 132.11 85.81, 147.91 67.63 M118.13 107.99 C125.92 99.02, 133.72 90.05, 147.65 74.03 M118.13 107.99 C128.67 95.86, 139.21 83.73, 147.65 74.03 M123.12 108.35 C130.51 99.84, 137.9 91.34, 148.05 79.67 M123.12 108.35 C129.97 100.46, 136.82 92.58, 148.05 79.67 M128.76 107.95 C135.33 100.4, 141.89 92.84, 147.79 86.07 M128.76 107.95 C133.48 102.53, 138.2 97.1, 147.79 86.07 M133.75 108.31 C138.67 102.65, 143.59 96.99, 148.18 91.71 M133.75 108.31 C138.95 102.33, 144.16 96.34, 148.18 91.71 M139.39 107.92 C141.91 105.02, 144.43 102.12, 147.92 98.11 M139.39 107.92 C142.12 104.78, 144.84 101.64, 147.92 98.11 M144.38 108.28 C145.18 107.36, 145.98 106.44, 147.66 104.51 M144.38 108.28 C145.07 107.48, 145.76 106.68, 147.66 104.51" stroke="#15aabf" stroke-width="0.5" fill="none"></path><path d="M0 0 C37.49 0, 74.98 0, 147.27 0 M0 0 C29.74 0, 59.47 0, 147.27 0 M147.27 0 C147.27 24.71, 147.27 49.42, 147.27 107 M147.27 0 C147.27 29.41, 147.27 58.82, 147.27 107 M147.27 107 C88.55 107, 29.83 107, 0 107 M147.27 107 C110.9 107, 74.53 107, 0 107 M0 107 C0 78.17, 0 49.33, 0 0 M0 107 C0 76.56, 0 46.12, 0 0" stroke="#000000" stroke-width="1" fill="none"></path></g><g transform="translate(886.818181818182 480.4545454545453) rotate(0 68.5 48)"><text x="68.5" y="17" font-family="Virgil, Segoe UI Emoji" font-size="20px" fill="#000000" text-anchor="middle" style="white-space: pre;" direction="ltr">Adicionar a </text><text x="68.5" y="41" font-family="Virgil, Segoe UI Emoji" font-size="20px" fill="#000000" text-anchor="middle" style="white-space: pre;" direction="ltr">resposta </text><text x="68.5" y="65" font-family="Virgil, Segoe UI Emoji" font-size="20px" fill="#000000" text-anchor="middle" style="white-space: pre;" direction="ltr">depois de x </text><text x="68.5" y="89" font-family="Virgil, Segoe UI Emoji" font-size="20px" fill="#000000" text-anchor="middle" style="white-space: pre;" direction="ltr">dias</text></g><g stroke-linecap="round"><g transform="translate(793.6363636363637 520) rotate(0 40.54933960781898 0.7108874040226851)"><path d="M1.02 0.7 C14.47 1.08, 67.92 1.48, 81 1.59 M0.1 0.02 C13.45 0.11, 67.51 -0.05, 80.58 -0.17" stroke="#000000" stroke-width="1" fill="none"></path></g><g transform="translate(793.6363636363637 520) rotate(0 40.54933960781898 0.7108874040226851)"><path d="M53.61 11.91 C62.83 5.84, 71.68 4.93, 80.42 -0.55 M52.08 10.87 C60.03 8.5, 66.83 6.24, 80.77 -0.46" stroke="#000000" stroke-width="1" fill="none"></path></g><g transform="translate(793.6363636363637 520) rotate(0 40.54933960781898 0.7108874040226851)"><path d="M53.5 -8.61 C62.64 -7.98, 71.52 -2.2, 80.42 -0.55 M51.97 -9.65 C60.07 -6.98, 66.9 -4.21, 80.77 -0.46" stroke="#000000" stroke-width="1" fill="none"></path></g></g><g stroke-linecap="round"><g transform="translate(967.2727272727273 594.5454545454545) rotate(0 -115.67111932154194 43.73470013735431)"><path d="M0.68 -0.46 C-37.99 14.24, -192.57 74.48, -231.33 89.21 M-0.42 -1.74 C-39.27 13.16, -193.31 72.48, -232.03 87.63" stroke="#000000" stroke-width="1" fill="none"></path></g><g transform="translate(967.2727272727273 594.5454545454545) rotate(0 -115.67111932154194 43.73470013735431)"><path d="M-210.21 68.69 C-215.65 74.92, -225.84 81.07, -230.79 86.73 M-208.76 68.51 C-214.29 73.44, -221.51 78.16, -232.31 87.92" stroke="#000000" stroke-width="1" fill="none"></path></g><g transform="translate(967.2727272727273 594.5454545454545) rotate(0 -115.67111932154194 43.73470013735431)"><path d="M-202.8 87.82 C-211.05 87.24, -223.9 86.54, -230.79 86.73 M-201.35 87.65 C-208.95 87.58, -218.12 87.27, -232.31 87.92" stroke="#000000" stroke-width="1" fill="none"></path></g></g></svg>